<svg id="_0004_new_message" xmlns="http://www.w3.org/2000/svg" xmlns:xlink="http://www.w3.org/1999/xlink" viewBox="0 0 500 500" data-imageid="message-received-38" imageName="Message Received" class="illustrations_image" style="width: 154px;"><defs><style>.cls-1_message-received-38{fill:#000405;opacity:.05;}.cls-1_message-received-38,.cls-2_message-received-38,.cls-3_message-received-38,.cls-4_message-received-38,.cls-5_message-received-38,.cls-6_message-received-38,.cls-7_message-received-38,.cls-8_message-received-38,.cls-9_message-received-38,.cls-10_message-received-38,.cls-11_message-received-38,.cls-12_message-received-38,.cls-13_message-received-38,.cls-14_message-received-38,.cls-15_message-received-38,.cls-16_message-received-38{stroke-width:0px;}.cls-1_message-received-38,.cls-3_message-received-38,.cls-4_message-received-38{isolation:isolate;}.cls-2_message-received-38{fill:url(#linear-gradient);}.cls-3_message-received-38{opacity:.18;}.cls-3_message-received-38,.cls-16_message-received-38{fill:#68e1fd;}.cls-4_message-received-38{opacity:.22;}.cls-4_message-received-38,.cls-14_message-received-38{fill:#fff;}.cls-5_message-received-38{fill:url(#linear-gradient-4-message-received-38);}.cls-6_message-received-38{fill:url(#linear-gradient-2-message-received-38);}.cls-7_message-received-38{fill:url(#linear-gradient-3-message-received-38);}.cls-8_message-received-38{fill:url(#linear-gradient-7-message-received-38);}.cls-9_message-received-38{fill:url(#linear-gradient-5-message-received-38);}.cls-10_message-received-38{fill:url(#linear-gradient-6-message-received-38);}.cls-11_message-received-38{fill:#231f20;}.cls-12_message-received-38{fill:#25233a;}.cls-13_message-received-38{fill:#e2897a;}.cls-15_message-received-38{fill:#ffb4a3;}</style><linearGradient id="linear-gradient-message-received-38" x1="-161.68" y1="2885.84" x2="-242.36" y2="2599.13" gradientTransform="translate(409 2960.46) scale(1 -1)" gradientUnits="userSpaceOnUse"><stop offset="0" stop-color="#231f20" stop-opacity="0"/><stop offset="1" stop-color="#231f20"/></linearGradient><linearGradient id="linear-gradient-2-message-received-38" x1="-187.58" y1="2807.01" x2="-236.25" y2="2573.65" xlink:href="#linear-gradient-message-received-38"/><linearGradient id="linear-gradient-3-message-received-38" x1="-183.15" y1="2806.1" x2="-231.82" y2="2572.73" xlink:href="#linear-gradient-message-received-38"/><linearGradient id="linear-gradient-4-message-received-38" x1="-177.49" y1="2804.91" x2="-226.16" y2="2571.54" xlink:href="#linear-gradient-message-received-38"/><linearGradient id="linear-gradient-5-message-received-38" x1="-102.57" y1="-233.5" x2="-97.43" y2="-212.08" gradientTransform="translate(408.67 600.5)" gradientUnits="userSpaceOnUse"><stop offset="0" stop-color="#68e1fd"/><stop offset="0" stop-color="#67ddf9"/><stop offset=".12" stop-color="#5cb3ce"/><stop offset=".24" stop-color="#538ea9"/><stop offset=".37" stop-color="#4c718b"/><stop offset=".5" stop-color="#465a73"/><stop offset=".63" stop-color="#424a63"/><stop offset=".79" stop-color="#404059"/><stop offset=".99" stop-color="#3f3d56"/></linearGradient><linearGradient id="linear-gradient-6-message-received-38" x1="24.14" y1="-219.07" x2="32.71" y2="-207.08" xlink:href="#linear-gradient-5-message-received-38"/><linearGradient id="linear-gradient-7-message-received-38" x1="2.75" y1="2832.46" x2="98.11" y2="2621.44" xlink:href="#linear-gradient-message-received-38"/></defs><path id="Background_message-received-38" class="cls-3_message-received-38 targetColor" d="M79.16,167.03c-14.68,3.11-29.93,6.49-41.71,15.78-9.95,7.84-25.45,22.31-30.15,34.07-19.9,49.66,2.6,110.09,46.26,141,20.54,14.54,46.13,21.57,64.59,38.68,11.67,10.82,19.85,25.15,32.27,35.1,18.15,14.52,42.65,17.74,65.84,19.29,16.11,1.09,32.85,1.56,47.79-4.56,10.8-4.43,19.96-12.02,28.94-19.5l59.51-49.7c9.56-7.98,18.5-20.68,30.95-20.6,112.06.8,119.61-131.08-52.37-189.49-15.16-5.15-25.55-19.46-39.79-26.8-29.42-15.16-63.27-10.25-92.94.24-37.67,13.35-80.1,18.17-119.2,26.49Z" style="fill: rgb(104, 225, 253);"/><g id="shadow_message-received-38"><path class="cls-1_message-received-38" d="M470.28,372.17c5.19.09,11.87,1.38,12.67,6.5.43,2.67-1.09,5.26-2.75,7.41-10.34,13.52-27.48,20.35-44.39,22.18-16.91,1.83-33.95-.73-50.83-2.81-24.4-3.01-48.89-5.01-73.48-6-17.48-.71-35.87-1.15-50.93-10.05-2.79-1.65-5.54-3.71-6.88-6.67-2.67-5.89,1.55-13.06,7.33-15.92s12.59-2.58,19.04-2.23c63.38,3.41,126.72,7.59,190.21,7.59Z"/></g><g id="message_message-received-38"><path class="cls-16_message-received-38 targetColor" d="M362.43,187.29v173.73c0,9.15-7.43,16.57-16.58,16.57H86.02c-9.15,0-16.58-7.42-16.58-16.58h0v-173.73c0-9.15,7.41-16.57,16.56-16.58h259.85c9.15,0,16.58,7.41,16.58,16.57h0Z" style="fill: rgb(104, 225, 253);"/><path class="cls-16_message-received-38 targetColor" d="M357.94,176.01H73.5l2.31-1.77c.11-.09.22-.18.33-.26l135.3-103.72,4.27-3.27,137.67,105.54,4.55,3.49Z" style="fill: rgb(104, 225, 253);"/><path class="cls-16_message-received-38 targetColor" d="M362.43,187.29l-3.46,2.5h0l-25.2,18.25-122.33,88.61-117.65-90.61-24.35-18.75.31-3.22c.59-3.02,2.02-5.81,4.12-8.06.59-.64,1.23-1.23,1.92-1.77.11-.09.22-.18.33-.26,2.86-2.13,6.32-3.28,9.89-3.27h259.83c8.54,0,15.67,6.49,16.5,14.98.05.53.08,1.07.08,1.6Z" style="fill: rgb(104, 225, 253);"/><path class="cls-2_message-received-38" d="M362.43,187.29l-3.46,2.51h0l-25.2,18.24-122.33,88.61-117.65-90.6-24.35-18.76.31-3.21c.77-3.9,2.91-7.39,6.04-9.85l.33-.25,135.31-103.72,4.27-3.27,137.67,105.54c5.05,2.57,8.43,7.54,8.97,13.18.05.53.08,1.06.08,1.59Z"/><path class="cls-14_message-received-38" d="M333.78,174.46v33.59l-45.15,32.67-10.35,7.52-66.83,48.41-62.86-48.41-9.74-7.49-45.07-34.67v-31.62c0-5.44,4.41-9.85,9.85-9.85h220.31c5.43,0,9.84,4.41,9.84,9.85Z"/><path class="cls-6_message-received-38" d="M300.69,203.91H122.66c-2.07,0-3.75-1.68-3.75-3.75h0c0-2.07,1.68-3.75,3.75-3.75h178.03c2.07,0,3.75,1.68,3.75,3.75h0c0,2.07-1.68,3.75-3.75,3.75Z"/><path class="cls-7_message-received-38" d="M300.69,226.08H122.66c-2.07,0-3.75-1.68-3.75-3.75h0c0-2.07,1.68-3.75,3.75-3.75h178.03c2.07,0,3.75,1.68,3.75,3.75h0c0,2.07-1.68,3.75-3.75,3.75Z"/><polygon class="cls-5_message-received-38" points="288.63 240.75 278.27 248.24 148.59 248.24 138.85 240.75 288.63 240.75"/><polygon class="cls-1_message-received-38" points="211.44 296.65 102.86 377.61 322.27 377.61 211.44 296.65"/><path class="cls-16_message-received-38 targetColor" d="M117.78,113.69c-5.47-11.73-26-9.8-26-9.8,12.67-7.47,10.24-26.46,10.09-27.58h0c5.54,16.55,24.67,12.9,26.38,12.54-12.7,3.13-10.47,24.84-10.47,24.84Z" style="fill: rgb(104, 225, 253);"/><path class="cls-16_message-received-38 targetColor" d="M82.17,137.75c-3.47-7.45-16.54-6.23-16.54-6.23h0c8.27-4.91,6.39-17.56,6.39-17.56v.07c3.55,10.46,15.68,8.14,16.76,7.91-8.04,2-6.62,15.8-6.62,15.8Z" style="fill: rgb(104, 225, 253);"/><polygon class="cls-4_message-received-38" points="69.94 196.42 205.74 300.91 211.44 296.65 69.44 187.29 69.94 196.42"/><polygon class="cls-4_message-received-38" points="215.94 300.23 362.43 194.79 362.43 187.6 211.44 296.94 215.94 300.23"/><path class="cls-4_message-received-38" d="M362.35,185.99l-.4,1.12-2.98,2.98c2.09-3.61-3.82-12-3.82-12l-2.36-1.77-7.09-5.33-134.26-100.43,4.27-3.27,137.67,105.53c5.04,2.57,8.42,7.54,8.97,13.18Z"/></g><g id="character_1_message-received-38"><path class="cls-16_message-received-38 targetColor" d="M470.5,137.83s-22.56,29.17-26.84,34.06c-7.81,8.88-12.84,20.53-12.84,20.53l-11.34,48.23-12.67-3.38-27.54-7.33s9.79-26.36,5.05-34.37c-6.32-10.67-.85-17.34.59-21.92,2.67-8.49-10.95-24-10.95-24l-8.73-39.09,13.18-1.76,9.56,31.69,16.38,14.62,11.67.62s8.8,1.81,15.2-1.15c6.12-2.84,27.74-27.22,27.74-27.22l8.82,8,2.72,2.47Z" style="fill: rgb(104, 225, 253);"/><path class="cls-11_message-received-38" d="M431.93,115.36c1.61-1.29,3.65-1.94,5.71-1.8,1.51-.06,2.98.45,4.13,1.43.89.99,1.45,2.23,1.61,3.55.33,1.64.45,3.31.37,4.97-.15,3.06-.94,6.3.38,9.07.31.66.74,1.26,1.25,1.77.6.67,1.43,1.08,2.32,1.15.92.04,1.73-.59,1.91-1.49-1.6,3.57-5.79,5.16-9.36,3.56,0,0-.02,0-.03-.01-.55-.25-1.07-.57-1.55-.95l1.16,2.35c-.96-.25-1.89-.6-2.77-1.05-2.83-1.54-4.42-4.67-5.17-7.83-.67-2.9-.8-5.89-1.43-8.81-.46-2.22-.34-4.3,1.47-5.91Z"/><path class="cls-16_message-received-38 targetColor" d="M431.08,118.56c.58-.02,1.15.07,1.69.26.92.38,1.55,1.24,1.63,2.23.05,1-.49,1.93-1.39,2.38-.57.23-1.18.34-1.8.31-.56,0-1.13,0-1.69-.05-.36.03-.69-.21-.77-.56-.37-.73-.64-1.49-.82-2.29-.46-2.45,1.19-2.31,3.14-2.29Z" style="fill: rgb(104, 225, 253);"/><path class="cls-15_message-received-38" d="M420.22,141.97s-.11,1.93-.24,4.43c-.11,2.11-.25,4.67-.37,6.79-.19,3.59-1.73,6.97-4.31,9.47-1.51,1.54-5.1,4.41-7.84,3.39-1.33-.49-1.38-2.17-1.1-3.18.62-1.84.96-3.75,1.02-5.69.04-1.57-.1-3.13-.42-4.67-1.71-4.29,13.26-10.55,13.26-10.55Z"/><path class="cls-13_message-received-38" d="M420.22,141.97s-.11,1.93-.24,4.43c-1.05,2.35-2.04,4.26-2.58,5.21-1.09,1.93-5.55,4.96-10,5.57.04-1.57-.1-3.13-.42-4.67-1.73-4.29,13.24-10.55,13.24-10.55Z"/><path class="cls-15_message-received-38" d="M407.18,116.44c-7.9.48-13.91,7.27-13.44,15.17,0,.34.05.67.1,1.01.45,5.83,1.94,11.52,4.41,16.82,4.67,8,16.5,1.42,18.37-1.87,1.87-3.29,9.06-18.15,6.04-22.36-2.08-2.84-7.85-9.07-15.49-8.77Z"/><path class="cls-11_message-received-38" d="M402.98,108.31c5.02-1.47,10.37-1.31,15.3.45,4.85,1.84,9.03,5.63,10.87,10.47,1.59,4.49,1.43,9.42-.43,13.8-1.88,4.35-4.87,8.13-8.67,10.95-.98-3,2.04-5.67,3.21-8.59.27-.54.33-1.16.17-1.75-.43-1.09-2.05-1.21-2.98-.5s-1.33,1.9-1.67,3.01c.9-4.77,1.57-10.37-1.81-13.86-2-2.07-5.02-2.84-7.9-2.87-5.35-.02-10.46,2.18-14.13,6.07-1.06,1.14-2.57,2.54-3.91,1.75-.42-.29-.75-.69-.95-1.15-3.98-7.88,6.47-16.04,12.9-17.8Z"/><path class="cls-11_message-received-38" d="M409.42,117.12c-3.33-1.47-6.83-2.67-10.45-2.67s-7.37,1.23-9.77,3.95c-1.25,1.52-2.16,3.28-2.67,5.18-.4,1.19-.56,2.44-.47,3.69.14.91.37,1.8.67,2.67.63,2.16.89,4.67-.47,6.48-.51.73-1.33,1.19-2.23,1.24-.91.02-1.7-.65-1.83-1.55-.59,1.66.37,3.61,1.9,4.48,1.59.81,3.45.9,5.11.25.69-.22,1.33-.57,1.89-1.03.55-.53,1-1.15,1.33-1.83,1.39-2.53,2.09-5.33,3.13-8.06s2.55-5.33,5.01-6.87c1.95-1.06,4.14-1.61,6.36-1.58,2.21-.07,4.43.11,6.63-.09s.61-1.51-.34-2.19c-1.2-.81-2.47-1.5-3.81-2.05Z"/><path class="cls-15_message-received-38" d="M498.97,93.21c.57.44-4.74,4.57-4.74,4.57,0,0-2.48,4.27-5,5.46-2.52,1.19-21.46,32.1-21.46,32.1l-7.47-6.77,16.12-21.69s5.33-10.22,4.74-14.67c0,0,.32-5.25,1.93-2.81,1.13,1.74.41,4.48,1.75,4.77.15.01.3-.02.43-.09,1.11-.67,2.13-1.49,3.03-2.43,2.67-2.54,5.85-6.07,5.85-6.07,0,0,1.75-.74,1.53,0-.22.74-3.43,5.73-3.61,6,.3-.27,5.22-4.67,6-4.33s-3.81,5.4-4.08,5.69c.29-.2,5.53-3.85,5.93-3.53.74.62-4,4.73-4.39,5.05.3-.16,2.91-1.69,3.45-1.26Z"/><path class="cls-15_message-received-38" d="M493.35,96.38c-.4.13-.82.16-1.23.1-1.34-.1-2.69-.12-4.04-.07-.91.04-2.78.67-2.83-.74,0-.37.09-.74.07-1.11,0-.16-.03-.32-.07-.48,1.11-.67,2.13-1.49,3.03-2.43.41.14.79.33,1.15.58l2.63,1.7c.47.31.93.61,1.38.95.2.12.36.3.45.51.09.42-.15.84-.55.99Z"/><path class="cls-15_message-received-38" d="M363.15,58.5c-.72.08,1.61,6.39,1.61,6.39,0,0-.15,4.94,1.33,7.27,1.48,2.33,1.33,38.11,1.33,38.11l9.92-1.33-2.25-26.94s.86-11.5,3.71-14.96c0,0,2.49-4.63-.15-3.41-1.88.88-2.71,3.59-4,3.13-.14-.06-.25-.17-.31-.31-.61-1.16-1.05-2.39-1.33-3.66-.94-3.57-1.77-8.25-1.77-8.25,0,0-1.07-1.53-1.24-.79s-.11,6.67-.11,7.01c-.11-.38-2-6.73-2.83-6.84s.39,6.6.47,6.99c-.15-.32-2.67-6.19-3.19-6.12-.95.14.94,6.15,1.08,6.6-.19-.29-1.59-2.95-2.27-2.89Z"/><path class="cls-15_message-received-38" d="M366.21,64.16c.28.32.63.57,1.02.73,1.19.63,2.35,1.32,3.47,2.08.75.51,2,2.05,2.79.86.21-.31.31-.67.53-.98.1-.13.2-.26.31-.38-.61-1.16-1.05-2.39-1.33-3.66-.42-.1-.85-.13-1.28-.11l-3.13.06c-.56-.01-1.12.01-1.68.07-.24,0-.47.07-.67.2-.29.31-.3.8-.03,1.13Z"/><path class="cls-11_message-received-38" d="M446.93,374.72l-5.14,2.88-44.01-46.26-4.85-61.76-40.13,36.4s1.07,25.06-12.96,44.67c-2.51,3.51-7.63,13.72-11.5,21.7-.12.25-.24.5-.35.75l-.75-.15-2.62-.55-5.69-1.17,18.44-74.54,41.91-66.72,27.54,7.33,12.67,3.38s8.55,17.13,0,61.46l-5.67,25.38s22.84,12.18,29.88,36.28l3.18,10.91h.03Z"/><path class="cls-9_message-received-38" d="M327.99,373.07c-2.67,5.45-4.61,9.68-4.61,9.68l-33.56,1.6s5.56-14.72,14.61-10.91c3.06,1.28,14.15-1.13,14.15-1.13l.35-1.11,9.06,1.87Z"/><path class="cls-10_message-received-38" d="M446.93,374.72l5.22,5.46-13.26,13.82h-17.34s3.69-6.1,11.08-7.07c7.39-.97,9.15-9.33,9.15-9.33l5.13-2.87Z"/><path class="cls-8_message-received-38" d="M470.5,137.83s-22.56,29.17-26.84,34.06c-7.81,8.88-12.84,20.53-12.84,20.53l-11.34,48.23-12.67-3.38s11.83-44.23,16.58-53.61c4.75-9.39,44.37-48.3,44.37-48.3l2.73,2.47Z"/><path class="cls-12_message-received-38" d="M446.89,374.7c-.23-.67-7.76-21.58-19.06-30.34-11.48-8.91-18.14-21.2-18.14-21.2-2.67-23.6-2.89-85.89-2.89-85.89l12.67,3.38s8.55,17.13,0,61.46l-5.67,25.38s22.84,12.21,29.88,36.31l3.21,10.91Z"/><path class="cls-12_message-received-38" d="M352.8,305.97s1.07,25.06-12.96,44.67c-2.51,3.51-7.63,13.72-11.5,21.7l-1.11.59-2.62-.55h0l21.75-68.6s26.34-31.21,31.18-34.2c4.83-2.99,15.39,0,15.39,0l-40.14,36.39Z"/></g></svg>