<svg id="_0241_reminder_note" xmlns="http://www.w3.org/2000/svg" xmlns:xlink="http://www.w3.org/1999/xlink" viewBox="0 0 500 500" data-imageid="reminder-note-8" imageName="Reminder Note" class="illustrations_image" style="width: 154px;"><defs><style>.cls-1_reminder-note-8{fill:url(#linear-gradient);}.cls-1_reminder-note-8,.cls-2_reminder-note-8,.cls-3_reminder-note-8,.cls-4_reminder-note-8,.cls-5_reminder-note-8,.cls-6_reminder-note-8,.cls-7_reminder-note-8,.cls-8_reminder-note-8,.cls-9_reminder-note-8,.cls-10_reminder-note-8,.cls-11_reminder-note-8,.cls-12_reminder-note-8,.cls-13_reminder-note-8,.cls-14_reminder-note-8,.cls-15_reminder-note-8,.cls-16_reminder-note-8,.cls-17_reminder-note-8,.cls-18_reminder-note-8,.cls-19_reminder-note-8,.cls-20_reminder-note-8,.cls-21_reminder-note-8,.cls-22_reminder-note-8,.cls-23_reminder-note-8,.cls-24_reminder-note-8,.cls-25_reminder-note-8,.cls-26_reminder-note-8,.cls-27_reminder-note-8,.cls-28_reminder-note-8,.cls-29_reminder-note-8,.cls-30_reminder-note-8,.cls-31_reminder-note-8,.cls-32_reminder-note-8,.cls-33_reminder-note-8{stroke-width:0px;}.cls-1_reminder-note-8,.cls-20_reminder-note-8,.cls-21_reminder-note-8,.cls-22_reminder-note-8,.cls-23_reminder-note-8,.cls-24_reminder-note-8{opacity:.26;}.cls-1_reminder-note-8,.cls-20_reminder-note-8,.cls-21_reminder-note-8,.cls-22_reminder-note-8,.cls-23_reminder-note-8,.cls-24_reminder-note-8,.cls-28_reminder-note-8{isolation:isolate;}.cls-2_reminder-note-8{fill:url(#linear-gradient-25-reminder-note-8);}.cls-3_reminder-note-8{fill:url(#linear-gradient-11-reminder-note-8);}.cls-4_reminder-note-8{fill:url(#linear-gradient-12-reminder-note-8);}.cls-5_reminder-note-8{fill:url(#linear-gradient-13-reminder-note-8);}.cls-6_reminder-note-8{fill:url(#linear-gradient-10-reminder-note-8);}.cls-7_reminder-note-8{fill:url(#linear-gradient-17-reminder-note-8);}.cls-8_reminder-note-8{fill:url(#linear-gradient-16-reminder-note-8);}.cls-9_reminder-note-8{fill:url(#linear-gradient-19-reminder-note-8);}.cls-10_reminder-note-8{fill:url(#linear-gradient-15-reminder-note-8);}.cls-11_reminder-note-8{fill:url(#linear-gradient-23-reminder-note-8);}.cls-12_reminder-note-8{fill:url(#linear-gradient-21-reminder-note-8);}.cls-13_reminder-note-8{fill:url(#linear-gradient-18-reminder-note-8);}.cls-14_reminder-note-8{fill:url(#linear-gradient-14-reminder-note-8);}.cls-15_reminder-note-8{fill:url(#linear-gradient-22-reminder-note-8);}.cls-16_reminder-note-8{fill:url(#linear-gradient-20-reminder-note-8);}.cls-17_reminder-note-8{fill:url(#linear-gradient-27-reminder-note-8);}.cls-18_reminder-note-8{fill:url(#linear-gradient-24-reminder-note-8);}.cls-19_reminder-note-8{fill:url(#linear-gradient-26-reminder-note-8);}.cls-20_reminder-note-8{fill:url(#linear-gradient-6-reminder-note-8);}.cls-21_reminder-note-8{fill:url(#linear-gradient-4-reminder-note-8);}.cls-22_reminder-note-8{fill:url(#linear-gradient-8-reminder-note-8);}.cls-23_reminder-note-8{fill:url(#linear-gradient-7-reminder-note-8);}.cls-24_reminder-note-8{fill:url(#linear-gradient-5-reminder-note-8);}.cls-25_reminder-note-8{fill:url(#linear-gradient-2-reminder-note-8);}.cls-26_reminder-note-8{fill:url(#linear-gradient-3-reminder-note-8);}.cls-27_reminder-note-8{fill:url(#linear-gradient-9-reminder-note-8);}.cls-28_reminder-note-8{opacity:.24;}.cls-28_reminder-note-8,.cls-33_reminder-note-8{fill:#68e1fd;}.cls-29_reminder-note-8{fill:#231f20;}.cls-30_reminder-note-8{fill:#b5765e;}.cls-31_reminder-note-8{fill:#fff;}.cls-32_reminder-note-8{fill:#ffaa71;}</style><linearGradient id="linear-gradient-reminder-note-8" x1="233.96" y1="3628.71" x2="235.93" y2="3514.52" gradientTransform="translate(-31 3904.32) scale(1 -1)" gradientUnits="userSpaceOnUse"><stop offset="0" stop-color="#010101" stop-opacity="0"/><stop offset=".95" stop-color="#010101"/></linearGradient><linearGradient id="linear-gradient-2-reminder-note-8" x1="170.03" y1="3548.43" x2="161.26" y2="3467.56" gradientTransform="translate(-32.45 3851.32) scale(1 -1)" xlink:href="#linear-gradient-reminder-note-8"/><linearGradient id="linear-gradient-3-reminder-note-8" x1="228.32" y1="3689.82" x2="235.12" y2="3394.29" gradientTransform="translate(-32.45 3851.32) scale(1 -1)" xlink:href="#linear-gradient-reminder-note-8"/><linearGradient id="linear-gradient-4-reminder-note-8" x1="140.19" y1="3706.24" x2="315.42" y2="3706.24" xlink:href="#linear-gradient-reminder-note-8"/><linearGradient id="linear-gradient-5-reminder-note-8" x1="231.07" y1="3706.77" x2="233.05" y2="3592.57" xlink:href="#linear-gradient-reminder-note-8"/><linearGradient id="linear-gradient-6-reminder-note-8" x1="231.07" y1="3687.1" x2="233.05" y2="3572.89" xlink:href="#linear-gradient-reminder-note-8"/><linearGradient id="linear-gradient-7-reminder-note-8" x1="231.07" y1="3667.42" x2="233.05" y2="3553.22" xlink:href="#linear-gradient-reminder-note-8"/><linearGradient id="linear-gradient-8-reminder-note-8" x1="231.07" y1="3647.75" x2="233.05" y2="3533.55" xlink:href="#linear-gradient-reminder-note-8"/><linearGradient id="linear-gradient-9-reminder-note-8" x1="199.13" y1="3660.59" x2="209.74" y2="3660.59" gradientTransform="translate(-32.45 3851.32) scale(1 -1)" xlink:href="#linear-gradient-reminder-note-8"/><linearGradient id="linear-gradient-10-reminder-note-8" x1="245.51" y1="3660.59" x2="256.11" y2="3660.59" gradientTransform="translate(-32.45 3851.32) scale(1 -1)" xlink:href="#linear-gradient-reminder-note-8"/><linearGradient id="linear-gradient-11-reminder-note-8" x1="229.76" y1="3728.23" x2="223.22" y2="3570.17" gradientTransform="translate(-32.45 3851.32) scale(1 -1)" xlink:href="#linear-gradient-reminder-note-8"/><linearGradient id="linear-gradient-12-reminder-note-8" x1="251.16" y1="3727.4" x2="244.62" y2="3569.29" gradientTransform="translate(-32.45 3851.32) scale(1 -1)" xlink:href="#linear-gradient-reminder-note-8"/><linearGradient id="linear-gradient-13-reminder-note-8" x1="251.99" y1="3726.09" x2="245.73" y2="3574.89" gradientTransform="translate(-32.45 3851.32) scale(1 -1)" xlink:href="#linear-gradient-reminder-note-8"/><linearGradient id="linear-gradient-14-reminder-note-8" x1="206.31" y1="3729.16" x2="199.76" y2="3570.86" gradientTransform="translate(-32.45 3851.32) scale(1 -1)" xlink:href="#linear-gradient-reminder-note-8"/><linearGradient id="linear-gradient-15-reminder-note-8" x1="206.88" y1="3727.16" x2="201.14" y2="3588.33" gradientTransform="translate(-32.45 3851.32) scale(1 -1)" xlink:href="#linear-gradient-reminder-note-8"/><linearGradient id="linear-gradient-16-reminder-note-8" x1="229.14" y1="3728.33" x2="222.59" y2="3570.03" gradientTransform="translate(-32.45 3851.32) scale(1 -1)" xlink:href="#linear-gradient-reminder-note-8"/><linearGradient id="linear-gradient-17-reminder-note-8" x1="259.17" y1="3751.35" x2="252.37" y2="3616.99" gradientTransform="translate(-32.45 3851.32) scale(1 -1)" xlink:href="#linear-gradient-reminder-note-8"/><linearGradient id="linear-gradient-18-reminder-note-8" x1="263.41" y1="3751.16" x2="256.6" y2="3616.81" gradientTransform="translate(-32.45 3851.32) scale(1 -1)" xlink:href="#linear-gradient-reminder-note-8"/><linearGradient id="linear-gradient-19-reminder-note-8" x1="267.49" y1="3750.99" x2="260.69" y2="3616.64" gradientTransform="translate(-32.45 3851.32) scale(1 -1)" xlink:href="#linear-gradient-reminder-note-8"/><linearGradient id="linear-gradient-20-reminder-note-8" x1="360.67" y1="3520.64" x2="341.31" y2="3222.08" gradientTransform="translate(-32.45 3851.32) scale(1 -1)" xlink:href="#linear-gradient-reminder-note-8"/><linearGradient id="linear-gradient-21-reminder-note-8" x1="396.58" y1="3496.33" x2="471.12" y2="3607.12" gradientTransform="translate(-32.45 3851.32) scale(1 -1)" xlink:href="#linear-gradient-reminder-note-8"/><linearGradient id="linear-gradient-22-reminder-note-8" x1="426.01" y1="3680.75" x2="442.78" y2="3691.15" gradientTransform="translate(-32.45 3851.32) scale(1 -1)" xlink:href="#linear-gradient-reminder-note-8"/><linearGradient id="linear-gradient-23-reminder-note-8" x1="390.83" y1="3686.57" x2="448.76" y2="3677.51" xlink:href="#linear-gradient-reminder-note-8"/><linearGradient id="linear-gradient-24-reminder-note-8" x1="360.8" y1="3504.34" x2="382.94" y2="3366.49" gradientTransform="translate(-32.45 3851.32) scale(1 -1)" xlink:href="#linear-gradient-reminder-note-8"/><linearGradient id="linear-gradient-25-reminder-note-8" x1="433.22" y1="3513.97" x2="455.01" y2="3378.31" gradientTransform="translate(-32.45 3851.32) scale(1 -1)" xlink:href="#linear-gradient-reminder-note-8"/><linearGradient id="linear-gradient-26-reminder-note-8" x1="394.45" y1="3625.78" x2="661.66" y2="3612.26" gradientTransform="translate(-32.45 3851.32) scale(1 -1)" xlink:href="#linear-gradient-reminder-note-8"/><linearGradient id="linear-gradient-27-reminder-note-8" x1="320.88" y1="3630.04" x2="615.05" y2="3615.17" gradientTransform="translate(-32.45 3851.32) scale(1 -1)" xlink:href="#linear-gradient-reminder-note-8"/></defs><path id="background_reminder-note-8" class="cls-28_reminder-note-8 targetColor" d="M79.01,169.51c-18.19,17.57-40.37,32.43-53.8,53.06-23.77,36.5-14.08,84.83,14.59,118.49,17.89,21.01,41.98,37.18,65.73,53.07,12.15,8.11,24.46,16.33,38.44,21.7,13.54,5.2,28.25,7.59,42.93,9.03,38.47,3.27,68.59-13.26,105.7-12.61,45.17.8,90.33,1.59,135.5,2.38,14.93.26,30.86.26,43.4-7.84,19.05-12.29,23.22-38.76,19.59-61.14-3.63-22.38-13.11-43.75-14.23-66.39-.82-16.49,2.83-32.83,5.47-49.13,6.08-37.56,7.47-99.63-37.3-110.05-57.19-13.3-114-27.4-172.53-33.57-49.32-5.2-91.05-12.61-130.9,17.79-24.59,18.79-40.82,44.18-62.59,65.2Z" style="fill: #009655;"/><g id="note_reminder-note-8"><path class="cls-1_reminder-note-8" d="M139.38,318.5h128.72c1.64,0,2.98,1.17,2.98,2.62h0c0,1.45-1.33,2.62-2.98,2.62h-128.72c-1.64,0-2.98-1.17-2.98-2.62h0c0-1.45,1.33-2.62,2.98-2.62Z"/><path class="cls-33_reminder-note-8 targetColor" d="M292.34,358.48l-117.68,1.12c-4.3.04-8.59-.48-12.71-1.56-6.18-1.6-11.88-4.36-16.72-8.11-6.57-5.14-14.29-11.35-19.47-16.21-7.37-6.9-15.41-22.01-17.75-38.55-1.19-7.88-.8-15.87,1.15-23.63,6.45-24.14,0-69.82,0-69.82l175.23-.64-.73,15.86c-2.13,26.69,8.68,141.54,8.68,141.54Z" style="fill: #009655;"/><path class="cls-25_reminder-note-8" d="M161.98,358.04c-6.18-1.6-11.88-4.36-16.72-8.11-6.57-5.14-14.29-11.35-19.47-16.21-7.37-6.9-15.41-22.01-17.75-38.55,4.73,3.24,7.88,8.15,12.79,11.29,4.61,2.98,10.34,4.13,15.94,4.97,8.03,1.25,16.14,2.01,24.28,2.3l-2.65,28.71c-.39,4.22-.46,8.11,1.49,12.07.54,1.13,1.39,2.31,2.08,3.53Z"/><path class="cls-26_reminder-note-8" d="M112.07,217.95s100.05,2.85,124.35,1.91c15.33-.55,30.69-.23,45.97.95l1.98-19.67-175.19.61,2.88,16.21Z"/><polygon class="cls-33_reminder-note-8 targetColor" points="109.19 201.73 115.31 194.75 277.21 194.43 284.42 201.09 109.19 201.73" style="fill: #009655;"/><polygon class="cls-21_reminder-note-8" points="109.19 201.73 115.31 194.75 277.21 194.43 284.42 201.09 109.19 201.73"/><path class="cls-24_reminder-note-8" d="M136.5,240.44h128.72c1.64,0,2.98,1.17,2.98,2.62h0c0,1.45-1.33,2.62-2.98,2.62h-128.72c-1.64,0-2.98-1.17-2.98-2.62h0c0-1.45,1.33-2.62,2.98-2.62Z"/><path class="cls-20_reminder-note-8" d="M136.5,260.12h128.72c1.64,0,2.98,1.17,2.98,2.62h0c0,1.45-1.33,2.62-2.98,2.62h-128.72c-1.64,0-2.98-1.17-2.98-2.62h0c0-1.45,1.33-2.62,2.98-2.62Z"/><path class="cls-23_reminder-note-8" d="M136.5,279.79h128.72c1.64,0,2.98,1.17,2.98,2.62h0c0,1.45-1.33,2.62-2.98,2.62h-128.72c-1.64,0-2.98-1.17-2.98-2.62h0c0-1.45,1.33-2.62,2.98-2.62Z"/><path class="cls-22_reminder-note-8" d="M136.5,299.47h128.72c1.64,0,2.98,1.17,2.98,2.62h0c0,1.45-1.33,2.62-2.98,2.62h-128.72c-1.64,0-2.98-1.17-2.98-2.62h0c0-1.45,1.33-2.62,2.98-2.62Z"/><polygon class="cls-33_reminder-note-8 targetColor" points="109.19 201.73 115.31 194.75 277.21 194.43 284.42 201.09 109.19 201.73" style="fill: #009655;"/></g><g id="time_reminder-note-8"><path class="cls-33_reminder-note-8 targetColor" d="M167.19,162.05s2.26-15.63,18.97-21.74c16.71-6.11,32.97,6.96,36.29,19.04,3.32,12.08-55.26,2.7-55.26,2.7Z" style="fill: #009655;"/><ellipse class="cls-31_reminder-note-8" cx="196.34" cy="169.32" rx="21.15" ry="19.97"/><path class="cls-33_reminder-note-8 targetColor" d="M173.21,184.36l-6.48,11.35s-.75,1.85,3.01,1.28l7.53-8.67-4.07-3.96Z" style="fill: #009655;"/><path class="cls-33_reminder-note-8 targetColor" d="M217.12,184.36l6.48,11.35s.76,1.85-3.01,1.28l-7.52-8.67,4.06-3.96Z" style="fill: #009655;"/><path class="cls-27_reminder-note-8" d="M173.21,184.36l-6.48,11.35s-.75,1.85,3.01,1.28l7.53-8.67-4.07-3.96Z"/><path class="cls-6_reminder-note-8" d="M217.12,184.36l6.48,11.35s.76,1.85-3.01,1.28l-7.52-8.67,4.06-3.96Z"/><path class="cls-33_reminder-note-8 targetColor" d="M195.35,141.87c16.04-.11,29.14,12.06,29.26,27.2.12,14.71-12.08,26.88-27.64,27.58-16.01.9-29.77-10.63-30.72-25.74-.95-15.12,11.26-28.1,27.27-29,.62-.03,1.24-.05,1.87-.05h-.03ZM215.58,169.17c-.14-10.49-9.22-18.92-20.34-18.87-11.09.04-20.04,8.56-20,19.03.05,10.47,9.07,18.92,20.16,18.88,11.12-.04,20.13-8.54,20.18-19.03Z" style="fill: #009655;"/><path class="cls-33_reminder-note-8 targetColor" d="M209.53,142.09c1.19-2.5,5.21-4.3,8.59-3.89,4.04.36,7.31,3.24,7.98,7.01.58,3.09-.99,7.01-3.33,8.11-3.24-4.81-7.82-8.7-13.24-11.23Z" style="fill: #009655;"/><path class="cls-33_reminder-note-8 targetColor" d="M167.99,153.22c-2.81-2.1-3.99-5.61-2.97-8.85.95-3.1,3.67-5.43,7.03-6.01,3.55-.61,7.14.8,9.19,3.61-5.42,2.54-10,6.43-13.25,11.25Z" style="fill: #009655;"/><path class="cls-33_reminder-note-8 targetColor" d="M206.58,157.15q1.54,1.42.11,2.76c-2.58,2.43-5.15,4.86-7.73,7.3-.47.35-.66.94-.48,1.48.45,1.51-.47,3.08-2.06,3.53-1.57.51-3.29-.19-3.96-1.62-.27-.63-.81-1.13-1.49-1.37-2.63-1.09-5.23-2.23-7.86-3.32-.7-.28-.86-.59-.58-1.29,1.28-2.7.86-2.31,3.37-1.29,2.28.93,4.53,1.95,6.82,2.88.56.15,1.14.2,1.72.15.31,0,.64-.15.93-.08,1.13.28,1.8-.28,2.53-.97,2.58-2.49,5.21-4.94,7.83-7.4.27-.29.54-.53.85-.76Z" style="fill: #009655;"/><path class="cls-3_reminder-note-8" d="M195.35,141.87c16.04-.11,29.14,12.06,29.26,27.2.12,14.71-12.08,26.88-27.64,27.58-16.01.9-29.77-10.63-30.72-25.74-.95-15.12,11.26-28.1,27.27-29,.62-.03,1.24-.05,1.87-.05h-.03ZM215.58,169.17c-.14-10.49-9.22-18.92-20.34-18.87-11.09.04-20.04,8.56-20,19.03.05,10.47,9.07,18.92,20.16,18.88,11.12-.04,20.13-8.54,20.18-19.03Z"/><path class="cls-4_reminder-note-8" d="M222.77,153.33c-.1-.12-.16-.21-.23-.3-.41-.61-.86-1.18-1.31-1.76-3.07-3.9-7.09-7.04-11.71-9.18,1.19-2.51,5.23-4.3,8.59-3.91,1.21.14,2.38.5,3.44,1.06,2.42,1.21,4.1,3.42,4.53,5.97.61,3.09-.96,7.02-3.3,8.11Z"/><path class="cls-5_reminder-note-8" d="M222.77,153.33c-.1-.12-.16-.21-.23-.3-.45-.61-.86-1.18-1.31-1.76-2.7-3.45-5.81-6.49-9.98-8.45,1.19-2.52,5.23-4.3,8.59-3.91.58.06,1.16.17,1.72.33,2.42,1.21,4.1,3.42,4.53,5.97.6,3.09-.97,7.02-3.31,8.11Z"/><path class="cls-14_reminder-note-8" d="M181.24,141.97l-.58.28c-1,.51-1.96,1.05-2.89,1.62-.16.1-.33.19-.46.28-3.04,1.95-5.7,4.37-7.89,7.15,0,0-.06.09-.09.12-.49.58-.94,1.19-1.35,1.82-2.82-2.12-4-5.65-2.98-8.92.37-1.29,1.09-2.47,2.09-3.42,1.3-1.35,3.03-2.26,4.94-2.58,3.57-.61,7.18.83,9.21,3.66Z"/><path class="cls-10_reminder-note-8" d="M181.24,141.97l-.58.28c-1,.54-1.96,1.05-2.89,1.62-.16.1-.33.19-.46.28-3.13,1.83-5.82,4.27-7.89,7.15,0,0-.06.09-.09.12-2.82-2.1-3.99-5.62-2.95-8.86.15-.57.39-1.12.7-1.62,1.3-1.35,3.03-2.26,4.94-2.58,3.56-.62,7.16.8,9.21,3.62Z"/><path class="cls-8_reminder-note-8" d="M206.58,157.15q1.54,1.42.11,2.76c-2.58,2.43-5.15,4.86-7.73,7.3-.47.35-.66.94-.48,1.48.45,1.51-.47,3.08-2.06,3.53-1.57.51-3.29-.19-3.96-1.62-.27-.63-.81-1.13-1.49-1.37-2.63-1.09-5.23-2.23-7.86-3.32-.7-.28-.86-.59-.58-1.29,1.28-2.7.86-2.31,3.37-1.29,2.28.93,4.53,1.95,6.82,2.88.56.15,1.14.2,1.72.15.31,0,.64-.15.93-.08,1.13.28,1.8-.28,2.53-.97,2.58-2.49,5.21-4.94,7.83-7.4.27-.29.54-.53.85-.76Z"/><path class="cls-33_reminder-note-8 targetColor" d="M233.22,146.72c-.78,0-1.44-.53-1.57-1.25-.86-4.4-2.81-7.65-5.91-9.66-5.26-3.4-12.02-2.2-12.08-2.19-.87.16-1.71-.38-1.88-1.2-.17-.82.4-1.61,1.26-1.77.33-.06,8.17-1.45,14.52,2.67,3.83,2.49,6.27,6.4,7.24,11.63.16.82-.42,1.6-1.29,1.75,0,0,0,0,0,0l-.28.02Z" style="fill: #009655;"/><path class="cls-33_reminder-note-8 targetColor" d="M241.53,144.31c-1.08,0-2-.74-2.18-1.74-1.13-6.1-3.89-10.6-8.19-13.39-7.29-4.73-16.66-3.06-16.76-3.05-1.2.26-2.39-.45-2.67-1.58-.27-1.13.47-2.26,1.67-2.52.04,0,.09-.02.14-.03.47-.09,11.33-2.01,20.15,3.7,5.32,3.45,8.7,8.87,10.05,16.13.21,1.14-.6,2.23-1.81,2.43,0,0,0,0,0,0-.13.02-.26.03-.4.03Z" style="fill: #009655;"/><path class="cls-33_reminder-note-8 targetColor" d="M250.12,141.39c-1.41,0-2.61-.96-2.85-2.27-1.48-7.95-5.07-13.83-10.68-17.45-9.5-6.16-21.72-3.98-21.84-3.97-1.57.29-3.09-.67-3.41-2.15-.31-1.48.71-2.92,2.28-3.21h0c.61-.12,14.76-2.63,26.26,4.86,6.93,4.49,11.34,11.57,13.1,21.03.27,1.49-.79,2.91-2.36,3.17-.17.02-.33.02-.5,0Z" style="fill: #009655;"/><path class="cls-7_reminder-note-8" d="M234.75,146.61c-.78,0-1.44-.53-1.57-1.26-.82-4.4-2.81-7.64-5.91-9.65-5.25-3.4-12.02-2.21-12.08-2.2-.86.22-1.74-.26-1.97-1.07-.23-.81.28-1.64,1.14-1.86.07-.02.14-.03.2-.04.33-.06,8.17-1.45,14.52,2.67,3.84,2.48,6.27,6.4,7.25,11.63.15.82-.43,1.61-1.31,1.75-.09.02-.19.02-.28.02Z"/><path class="cls-13_reminder-note-8" d="M243.03,144.18c-1.08,0-2-.73-2.18-1.73-1.13-6.1-3.89-10.61-8.19-13.4-7.28-4.73-16.66-3.05-16.76-3.04-1.21.19-2.36-.59-2.56-1.73-.19-1.09.55-2.14,1.7-2.39.46-.09,11.32-2.02,20.14,3.7,5.32,3.45,8.7,8.92,10.05,16.14.22,1.14-.58,2.22-1.79,2.43,0,0-.01,0-.02,0-.13.02-.26.03-.4.02Z"/><path class="cls-9_reminder-note-8" d="M251.62,141.24c-1.41,0-2.61-.95-2.85-2.26-1.48-7.96-5.07-13.83-10.67-17.46-9.51-6.16-21.72-3.98-21.85-3.96-1.58.24-3.07-.77-3.33-2.27-.24-1.42.72-2.78,2.21-3.11.6-.11,14.76-2.62,26.25,4.86,6.93,4.49,11.35,11.57,13.1,21.08.28,1.49-.78,2.9-2.35,3.16,0,0,0,0,0,0-.17,0-.34-.01-.51-.04Z"/></g><g id="character_reminder-note-8"><path class="cls-16_reminder-note-8" d="M363.69,371.66c-9.05-2.22-17.88-5.38-27.21-6.44-8.42-.96-16.96-.17-25.4.62l-109.52,10.2c-2.92.28-6.64,1.24-6.8,3.83.04.99.41,1.96,1.07,2.76,6.3,9.13,18.63,13.9,30.69,15.02,12.07,1.12,24.18-.88,36.19-2.36,26.39-3.26,53.08-4.12,79.67-2.57,38.42,2.25,80.46,8.8,112.72-9.73-30.44-3.45-61.55-4.02-91.41-11.32Z"/><path class="cls-32_reminder-note-8" d="M429.74,146.56c.76-2.4.78-4.94.06-7.35-.85-2.5-2.33-4.79-4.32-6.72,0,0-3.31-1.01-6.02-.08s1.12,5.21.76,7.25-2.57-3.64-3.88-3.14,2.04,8.31,4.53,9.28"/><path class="cls-32_reminder-note-8" d="M329.41,214.32s-7.09-4.47-8.35-6.03,3.17-6.32,1.84-7.36-6.11-3.2-5.64-5.27,8.47,2.68,12.1,5.07,6.93,8.68,6.93,8.68c0,0-.88,6.1-6.89,4.91Z"/><path class="cls-33_reminder-note-8 targetColor" d="M416.92,193.1c-.42,3.59-1.02,8.03-1.72,12.92h0c-3.23,23.22-8.55,56.79-8.97,58.95-.28,1.43-4.26,2.02-9.4,2.08-6.71.05-15.41-.85-20.26-2.08-5.78-1.53-11.38-3.54-16.74-5.98,0,0,9.88-69.82,11.78-70.92s15.31-2.02,15.31-2.02l15.57.48s4.73-1.25,8.91-2.04c2.99-.56,5.68-.91,6.25-.41.24.22-.04,3.67-.73,9.01Z" style="fill: #009655;"/><path class="cls-33_reminder-note-8 targetColor" d="M373.47,187.37s-3.68,1.09-5.57,3.24c-1.89,2.15-16.72,28.37-14.86,33.78,1.86,5.41,8.29,9.43,10.13,8.34s5.34-11.07,5.96-13.25,1.84-9.36,1.84-9.36l2.5-22.76Z" style="fill: #009655;"/><path class="cls-33_reminder-note-8 targetColor" d="M434.41,171.62c.49,5.37-15.59,28.5-18.61,33.53-.18.29-.4.58-.61.88h0c-3.5,4.39-11.66,6.25-11.66,6.25-.07-.11-.12-.22-.15-.34-2.33-4.86,2.98-19.33,2.98-19.33l5.05-8.11,8.61-13.94.34-23.95s.73-2.29,5.2-2.8c2.53-.29,3.74.14,4.35.54.24.16.42.39.52.64,0,0,3.43,20.41,3.97,26.63Z" style="fill: #009655;"/><path class="cls-32_reminder-note-8" d="M352.67,371.82s-2.62,8.7-3.84,9.33-5.53-1.37-7.99-2.95-1.6-4.96-1.6-4.96l1.08-2.64,12.35,1.22Z"/><path class="cls-32_reminder-note-8" d="M418.45,367.63s4.77,11.83,4.29,12.97-6.31-.54-9.37-.36c-3.06.18-4.24-4-4.24-4l-1.09-2.64,10.4-5.97Z"/><path class="cls-32_reminder-note-8" d="M403.73,180s-1.84,7.09-1.24,9.81-4.33,10.35-10.52,10.35-6.19-9.27-6.19-10.35,1.84-1.62,1.23-4.36,16.1-8.71,16.72-5.45Z"/><path class="cls-30_reminder-note-8" d="M387.01,185.45c.48,2.11-.52,2.91-.99,3.67,1.36,1.19,3.18,1.9,5.09,1.98,3.68,0,9.29-2.72,11.76-7.63.05-.08.09-.18.14-.27.35-1.8.72-3.2.72-3.2-.62-3.27-17.34,2.72-16.72,5.45Z"/><path class="cls-31_reminder-note-8" d="M402.38,188.76s-4.99,10.29-9.21,11.35c0,0-1.16.54,1.93,2.18,3.1,1.64,11.76-6.54,10.53-12.53-.29-1.54-1.48-2.84-3.12-3.43l-.13,2.43Z"/><path class="cls-31_reminder-note-8" d="M387.01,186.53s-1.37,7.56,2.1,12.78c0,0-1.48,1.94-2.72,1.94s-4.34-6.53-3.1-11.44c.72-2.87,3.1-4.05,3.71-3.28Z"/><path class="cls-29_reminder-note-8" d="M406.21,265.01l-6.77,47.39,21.06,61.29s-3.87,1.89-11.92,1.35l-28.56-60.61-.41-38.53-9.29,33.24-17.8,64.8s-9.06,1.75-14.4-1.62l11.76-63.17,9.9-50.13,46.41,6Z"/><path class="cls-12_reminder-note-8" d="M420.49,373.69s-3.87,1.88-11.9,1.35l-28.61-60.63-.4-38.52-9.27,33.24-17.83,64.85s-9.03,1.76-14.38-1.62l11.75-63.23,9.91-50.12,37.4,4.81,9.04,1.18-6.77,47.41,21.06,61.29Z"/><path class="cls-32_reminder-note-8" d="M383.3,164.2s-1.24,14.16,0,17.98c1.24,3.82,4.95,7.09,8.67,7.09s9.29-2.73,11.76-7.63,3.68-16.89,3.1-18.53-4.36-6.77-14.24-5.96c-6.81.51-9.29,4.86-9.29,7.05Z"/><path class="cls-29_reminder-note-8" d="M406.07,171.18c-.56,1.11-2.53,1.17-3.53.32-.92-.94-1.3-2.2-1.01-3.42.18-1.21.64-2.38.73-3.61.06-.29-.02-.58-.22-.81-.26-.19-.59-.27-.92-.23-1.84.05-4.06.7-5.37-.47-.78-.7-1.01-1.91-2.05-2.25-.88-.28-1.78.24-2.6.61-1.95.88-4.21,1.07-6.31.54-.45-.08-.84-.3-1.11-.62-.14-.28-.18-.6-.11-.9.27-1.98,1.5-3.75,3.38-4.86,1.59-.82,3.35-1.35,5.18-1.56,2.1-.33,4.23-.55,6.37-.65,1.14-.13,2.29,0,3.35.37.99.57,1.88,1.26,2.64,2.05,1.22,1,2.76,1.69,3.68,2.9.75.99,2.39.96,2.96,3.36.49,2.1.82,4.22,1.23,6.33s-.59,4.29-1.1,6.39q-1.03,4.3-2.76,5.77c-1.07.81-2.26,1.48-3.54,1.99-.44.27-.99.37-1.52.28-.51-.15-.7-.89-.2-1.06"/><path class="cls-15_reminder-note-8" d="M406.07,171.18c-.56,1.11-2.53,1.17-3.53.32-.92-.94-1.3-2.2-1.01-3.42.18-1.21.64-2.38.73-3.61.06-.29-.02-.58-.22-.81-.26-.19-.59-.27-.92-.23-1.84.05-4.06.7-5.37-.47-.78-.7-1.01-1.91-2.05-2.25-.88-.28-1.78.24-2.6.61-1.95.88-4.21,1.07-6.31.54-.45-.08-.84-.3-1.11-.62-.14-.28-.18-.6-.11-.9.27-1.98,1.5-3.75,3.38-4.86,1.59-.82,3.35-1.35,5.18-1.56,2.1-.33,4.23-.55,6.37-.65,1.14-.13,2.29,0,3.35.37.99.57,1.88,1.26,2.64,2.05,1.22,1,2.76,1.69,3.68,2.9.75.99,2.39.96,2.96,3.36.49,2.1.82,4.22,1.23,6.33s-.59,4.29-1.1,6.39q-1.03,4.3-2.76,5.77c-1.07.81-2.26,1.48-3.54,1.99-.44.27-.99.37-1.52.28-.51-.15-.7-.89-.2-1.06"/><path class="cls-32_reminder-note-8" d="M404,173.36s.62-3.24,3.1-2.18-.62,7.09-1.84,7.63c-.55.3-1.19.46-1.84.46"/><path class="cls-33_reminder-note-8 targetColor" d="M363.69,233.03c-1.66,2.98-4.8,5.91-8.4,3.96-14.13-7.65-27.95-22.89-27.95-22.89.04-1.26.36-2.5.92-3.66,1.17-2.33,3.59-3.98,6.45-4.39l26.82,19.94,2.76,2.1.4.3c.63.48.18,2.58-1,4.65Z" style="fill: #009655;"/><polygon class="cls-11_reminder-note-8" points="363.69 233.03 367.89 201.02 361.44 236 363.69 233.03"/><path class="cls-33_reminder-note-8 targetColor" d="M328.26,377.79c-3.54,1.05-7.17,2.15-10.07,4.22-.51.3-.87.75-1.04,1.26-.16.81.65,1.54,1.45,2.01,5.38,3.24,12.37,3.31,18.89,3.24,3.42,0,7.17-.19,9.66-2.23,2.1-1.73,2.76-4.36,3.33-6.83.08-.25.1-.5.06-.75-.22-.92-1.63-1-2.69-.97-3.68.1-5.82-1.93-9.05-2.52-3.09-.58-7.63,1.71-10.54,2.57Z" style="fill: #009655;"/><path class="cls-33_reminder-note-8 targetColor" d="M401.82,382.79c-2.99,1.98-6.04,4.05-8.06,6.8-.37.42-.56.95-.53,1.48.15.81,1.17,1.27,2.09,1.51,6.26,1.62,12.9-.28,19.1-2.16,3.22-.97,6.73-2.16,8.37-4.79,1.37-2.21,1.07-4.9.73-7.41-.02-.25-.09-.5-.22-.73-.53-.81-1.91-.49-2.9-.17-3.49,1.11-6.22-.23-9.5.11-3.12.31-6.62,3.74-9.07,5.36Z" style="fill: #009655;"/><path class="cls-18_reminder-note-8" d="M328.26,377.79c-3.54,1.05-7.17,2.15-10.07,4.22-.51.3-.87.75-1.04,1.26-.16.81.65,1.54,1.45,2.01,5.38,3.24,12.37,3.31,18.89,3.24,3.42,0,7.17-.19,9.66-2.23,2.1-1.73,2.76-4.36,3.33-6.83.08-.25.1-.5.06-.75-.22-.92-1.63-1-2.69-.97-3.68.1-5.82-1.93-9.05-2.52-3.09-.58-7.63,1.71-10.54,2.57Z"/><path class="cls-2_reminder-note-8" d="M401.82,382.79c-2.99,1.98-6.04,4.05-8.06,6.8-.37.42-.56.95-.53,1.48.15.81,1.17,1.27,2.09,1.51,6.26,1.62,12.9-.28,19.1-2.16,3.22-.97,6.73-2.16,8.37-4.79,1.37-2.21,1.07-4.9.73-7.41-.02-.25-.09-.5-.22-.73-.53-.81-1.91-.49-2.9-.17-3.49,1.11-6.22-.23-9.5.11-3.12.31-6.62,3.74-9.07,5.36Z"/><path class="cls-19_reminder-note-8" d="M434.41,171.62c.49,5.37-15.59,28.5-18.61,33.53-.18.29-.4.58-.61.88h0c-3.23,23.22-8.55,56.79-8.97,58.95l-6.77,47.41-5.89-18.05,3.26-27.28.36-3.24s4.47-38.98,12.76-59.87c1.34-3.37,2.76-5.56,7-10.85,7.17-9,14.48-19.31,13.56-22.97-1.69-7.13-4.95-26.3-4.95-26.3l4.35.54c.24.16.42.39.52.64,0,0,3.45,20.4,3.99,26.62Z"/><path class="cls-17_reminder-note-8" d="M365.2,220.86l-.92,7.23-.64,4.95c-1.66,2.98-4.8,5.91-8.4,3.96-14.08-7.65-27.9-22.89-27.9-22.89.04-1.26.36-2.5.92-3.66,2.48,1.99,25.71,20.9,27.59,21.13,1.02.13,3.53-2.76,5.67-5.59,1.99-2.6,3.68-5.13,3.68-5.13Z"/></g></svg>