<svg id="_0121_team_presentation_1" xmlns="http://www.w3.org/2000/svg" xmlns:xlink="http://www.w3.org/1999/xlink" viewBox="0 0 500 500" data-imageid="team-presentation-1-19" imageName="Team Presentation 1" class="illustrations_image" style="width: 154px;"><defs><style>.cls-1_team-presentation-1-19{fill:none;stroke:#fff;stroke-miterlimit:10;stroke-width:.82px;}.cls-2_team-presentation-1-19{fill:url(#linear-gradient);}.cls-2_team-presentation-1-19,.cls-3_team-presentation-1-19,.cls-4_team-presentation-1-19,.cls-5_team-presentation-1-19,.cls-6_team-presentation-1-19,.cls-7_team-presentation-1-19,.cls-8_team-presentation-1-19,.cls-9_team-presentation-1-19,.cls-10_team-presentation-1-19,.cls-11_team-presentation-1-19,.cls-12_team-presentation-1-19,.cls-13_team-presentation-1-19,.cls-14_team-presentation-1-19,.cls-15_team-presentation-1-19,.cls-16_team-presentation-1-19,.cls-17_team-presentation-1-19,.cls-18_team-presentation-1-19,.cls-19_team-presentation-1-19,.cls-20_team-presentation-1-19,.cls-21_team-presentation-1-19,.cls-22_team-presentation-1-19,.cls-23_team-presentation-1-19,.cls-24_team-presentation-1-19,.cls-25_team-presentation-1-19,.cls-26_team-presentation-1-19,.cls-27_team-presentation-1-19,.cls-28_team-presentation-1-19,.cls-29_team-presentation-1-19,.cls-30_team-presentation-1-19,.cls-31_team-presentation-1-19,.cls-32_team-presentation-1-19,.cls-33_team-presentation-1-19,.cls-34_team-presentation-1-19,.cls-35_team-presentation-1-19,.cls-36_team-presentation-1-19,.cls-37_team-presentation-1-19{stroke-width:0px;}.cls-3_team-presentation-1-19{opacity:.18;}.cls-3_team-presentation-1-19,.cls-33_team-presentation-1-19{isolation:isolate;}.cls-3_team-presentation-1-19,.cls-33_team-presentation-1-19,.cls-37_team-presentation-1-19{fill:#68e1fd;}.cls-4_team-presentation-1-19{fill:url(#linear-gradient-29-team-presentation-1-19);}.cls-5_team-presentation-1-19{fill:url(#linear-gradient-30-team-presentation-1-19);}.cls-6_team-presentation-1-19{fill:url(#linear-gradient-28-team-presentation-1-19);}.cls-7_team-presentation-1-19{fill:url(#linear-gradient-25-team-presentation-1-19);}.cls-8_team-presentation-1-19{fill:url(#linear-gradient-11-team-presentation-1-19);}.cls-9_team-presentation-1-19{fill:url(#linear-gradient-12-team-presentation-1-19);}.cls-10_team-presentation-1-19{fill:url(#linear-gradient-13-team-presentation-1-19);}.cls-11_team-presentation-1-19{fill:url(#linear-gradient-10-team-presentation-1-19);}.cls-12_team-presentation-1-19{fill:url(#linear-gradient-17-team-presentation-1-19);}.cls-13_team-presentation-1-19{fill:url(#linear-gradient-16-team-presentation-1-19);}.cls-14_team-presentation-1-19{fill:url(#linear-gradient-19-team-presentation-1-19);}.cls-15_team-presentation-1-19{fill:url(#linear-gradient-15-team-presentation-1-19);}.cls-16_team-presentation-1-19{fill:url(#linear-gradient-23-team-presentation-1-19);}.cls-17_team-presentation-1-19{fill:url(#linear-gradient-21-team-presentation-1-19);}.cls-18_team-presentation-1-19{fill:url(#linear-gradient-18-team-presentation-1-19);}.cls-19_team-presentation-1-19{fill:url(#linear-gradient-14-team-presentation-1-19);}.cls-20_team-presentation-1-19{fill:url(#linear-gradient-22-team-presentation-1-19);}.cls-21_team-presentation-1-19{fill:url(#linear-gradient-20-team-presentation-1-19);}.cls-22_team-presentation-1-19{fill:url(#linear-gradient-27-team-presentation-1-19);}.cls-23_team-presentation-1-19{fill:url(#linear-gradient-24-team-presentation-1-19);}.cls-24_team-presentation-1-19{fill:url(#linear-gradient-26-team-presentation-1-19);}.cls-25_team-presentation-1-19{fill:url(#linear-gradient-4-team-presentation-1-19);}.cls-26_team-presentation-1-19{fill:url(#linear-gradient-2-team-presentation-1-19);}.cls-27_team-presentation-1-19{fill:url(#linear-gradient-3-team-presentation-1-19);}.cls-28_team-presentation-1-19{fill:url(#linear-gradient-8-team-presentation-1-19);}.cls-29_team-presentation-1-19{fill:url(#linear-gradient-9-team-presentation-1-19);}.cls-30_team-presentation-1-19{fill:url(#linear-gradient-7-team-presentation-1-19);}.cls-31_team-presentation-1-19{fill:url(#linear-gradient-5-team-presentation-1-19);}.cls-32_team-presentation-1-19{fill:url(#linear-gradient-6-team-presentation-1-19);}.cls-33_team-presentation-1-19{opacity:.48;}.cls-34_team-presentation-1-19{fill:#231f20;}.cls-35_team-presentation-1-19{fill:#c14834;}.cls-36_team-presentation-1-19{fill:#ffb4a3;}</style><linearGradient id="linear-gradient-team-presentation-1-19" x1="623.36" y1="3756.87" x2="800.83" y2="3756.87" gradientTransform="translate(-471 3866.26) scale(1 -1)" gradientUnits="userSpaceOnUse"><stop offset=".02" stop-color="#fff" stop-opacity="0"/><stop offset=".32" stop-color="#fff" stop-opacity=".39"/><stop offset=".68" stop-color="#fff" stop-opacity=".68"/><stop offset="1" stop-color="#fff"/></linearGradient><linearGradient id="linear-gradient-2-team-presentation-1-19" x1="707.9" y1="3668.29" x2="786.94" y2="3700.12" gradientTransform="translate(-470.89 3864.94) scale(1 -1)" xlink:href="#linear-gradient-team-presentation-1-19"/><linearGradient id="linear-gradient-3-team-presentation-1-19" x1="765.23" y1="3696.68" x2="811.52" y2="3710.22" gradientTransform="translate(-470.89 3864.94) scale(1 -1)" xlink:href="#linear-gradient-team-presentation-1-19"/><linearGradient id="linear-gradient-4-team-presentation-1-19" x1="623.58" y1="3738.85" x2="630.17" y2="3645.26" xlink:href="#linear-gradient-team-presentation-1-19"/><linearGradient id="linear-gradient-5-team-presentation-1-19" x1="635.12" y1="3739.66" x2="641.7" y2="3646.07" gradientTransform="translate(-471 3866.26) scale(1 -1)" gradientUnits="userSpaceOnUse"><stop offset=".02" stop-color="#fff" stop-opacity="0"/><stop offset=".32" stop-color="#fff" stop-opacity=".39"/><stop offset=".67" stop-color="#fff" stop-opacity=".68"/><stop offset="1" stop-color="#fff"/></linearGradient><linearGradient id="linear-gradient-6-team-presentation-1-19" x1="647.65" y1="3740.55" x2="654.24" y2="3646.96" xlink:href="#linear-gradient-team-presentation-1-19"/><linearGradient id="linear-gradient-7-team-presentation-1-19" x1="660.01" y1="3741.42" x2="666.59" y2="3647.82" xlink:href="#linear-gradient-team-presentation-1-19"/><linearGradient id="linear-gradient-8-team-presentation-1-19" x1="870.59" y1="3436.33" x2="874.71" y2="3671.8" gradientTransform="translate(-471 3866.26) scale(1 -1)" gradientUnits="userSpaceOnUse"><stop offset="0" stop-color="#231f20" stop-opacity="0"/><stop offset="1" stop-color="#231f20"/></linearGradient><linearGradient id="linear-gradient-9-team-presentation-1-19" x1="790.79" y1="3601.17" x2="790.79" y2="3538.23" xlink:href="#linear-gradient-8-team-presentation-1-19"/><linearGradient id="linear-gradient-10-team-presentation-1-19" x1="681.02" y1="3499.25" x2="677.72" y2="3611.77" xlink:href="#linear-gradient-8-team-presentation-1-19"/><linearGradient id="linear-gradient-11-team-presentation-1-19" x1="729.3" y1="3500.66" x2="726.01" y2="3613.18" xlink:href="#linear-gradient-8-team-presentation-1-19"/><linearGradient id="linear-gradient-12-team-presentation-1-19" x1="911.23" y1="3435.48" x2="915.34" y2="3670.95" xlink:href="#linear-gradient-8-team-presentation-1-19"/><linearGradient id="linear-gradient-13-team-presentation-1-19" x1="933.49" y1="3509.13" x2="951.05" y2="3529.99" gradientTransform="translate(-470.89 3864.94) scale(1 -1)" xlink:href="#linear-gradient-8-team-presentation-1-19"/><linearGradient id="linear-gradient-14-team-presentation-1-19" x1="890.44" y1="3506.39" x2="923.09" y2="3534.93" gradientTransform="translate(-470.89 3864.94) scale(1 -1)" xlink:href="#linear-gradient-8-team-presentation-1-19"/><linearGradient id="linear-gradient-15-team-presentation-1-19" x1="913.57" y1="3585.44" x2="957.76" y2="3507.77" gradientTransform="translate(-470.89 3864.94) scale(1 -1)" xlink:href="#linear-gradient-8-team-presentation-1-19"/><linearGradient id="linear-gradient-16-team-presentation-1-19" x1="801.33" y1="3523.81" x2="887.28" y2="3523.81" gradientTransform="translate(-470.89 3864.94) scale(1 -1)" xlink:href="#linear-gradient-8-team-presentation-1-19"/><linearGradient id="linear-gradient-17-team-presentation-1-19" x1="899.73" y1="3565.23" x2="965.61" y2="3690.75" gradientTransform="translate(-470.89 3864.94) scale(1 -1)" xlink:href="#linear-gradient-8-team-presentation-1-19"/><linearGradient id="linear-gradient-18-team-presentation-1-19" x1="524.3" y1="3468.82" x2="539.95" y2="3607.14" gradientTransform="translate(-470.89 3864.94) scale(1 -1)" xlink:href="#linear-gradient-8-team-presentation-1-19"/><linearGradient id="linear-gradient-19-team-presentation-1-19" x1="538.69" y1="3640.6" x2="470.22" y2="3600.94" gradientTransform="translate(-470.89 3864.94) scale(1 -1)" xlink:href="#linear-gradient-8-team-presentation-1-19"/><linearGradient id="linear-gradient-20-team-presentation-1-19" x1="537.02" y1="3585.7" x2="498.6" y2="3674.25" gradientTransform="translate(-470.89 3864.94) scale(1 -1)" xlink:href="#linear-gradient-8-team-presentation-1-19"/><linearGradient id="linear-gradient-21-team-presentation-1-19" x1="542.42" y1="3665.72" x2="544.2" y2="3691.11" gradientTransform="translate(-470.89 3864.94) scale(1 -1)" xlink:href="#linear-gradient-8-team-presentation-1-19"/><linearGradient id="linear-gradient-22-team-presentation-1-19" x1="580.07" y1="3648.21" x2="562.5" y2="3599.35" gradientTransform="translate(-470.89 3864.94) scale(1 -1)" xlink:href="#linear-gradient-8-team-presentation-1-19"/><linearGradient id="linear-gradient-23-team-presentation-1-19" x1="663.12" y1="3514.24" x2="635.14" y2="3503.81" gradientTransform="translate(-470.89 3864.94) scale(1 -1)" xlink:href="#linear-gradient-8-team-presentation-1-19"/><linearGradient id="linear-gradient-24-team-presentation-1-19" x1="-2085.24" y1="4112.96" x2="-2086.57" y2="4090.88" gradientTransform="translate(700.31 4933.03) rotate(20.39) scale(1 -1)" xlink:href="#linear-gradient-8-team-presentation-1-19"/><linearGradient id="linear-gradient-25-team-presentation-1-19" x1="614.27" y1="3525.22" x2="623.05" y2="3480.08" gradientTransform="translate(-470.89 3864.94) scale(1 -1)" xlink:href="#linear-gradient-8-team-presentation-1-19"/><linearGradient id="linear-gradient-26-team-presentation-1-19" x1="-9030.52" y1="497.32" x2="-9031.85" y2="475.2" gradientTransform="translate(-6992.33 5884.96) rotate(145.2)" xlink:href="#linear-gradient-8-team-presentation-1-19"/><linearGradient id="linear-gradient-27-team-presentation-1-19" x1="640.09" y1="3543.9" x2="636.61" y2="3486.27" gradientTransform="translate(-470.89 3864.94) scale(1 -1)" xlink:href="#linear-gradient-8-team-presentation-1-19"/><linearGradient id="linear-gradient-28-team-presentation-1-19" x1="636.68" y1="3512.28" x2="635.62" y2="3494.63" gradientTransform="translate(-470.89 3864.94) scale(1 -1)" xlink:href="#linear-gradient-8-team-presentation-1-19"/><linearGradient id="linear-gradient-29-team-presentation-1-19" x1="623.47" y1="3482.05" x2="651.72" y2="3482.05" xlink:href="#linear-gradient-8-team-presentation-1-19"/><linearGradient id="linear-gradient-30-team-presentation-1-19" x1="636.97" y1="3491.95" x2="638.89" y2="3483.03" xlink:href="#linear-gradient-8-team-presentation-1-19"/></defs><path id="background_team-presentation-1-19" class="cls-3_team-presentation-1-19 targetColor" d="M211.03,446.83c72.23,6.03,145.51-16.01,205.89-56.11,27.87-18.5,54.02-41.79,67.46-72.43,13.44-30.64,11.52-69.76-11.6-93.96-17.3-18.11-43.58-25.75-60.14-44.6-13.03-14.85-18.28-34.79-27.06-52.51-32.05-64.6-175.05-90.79-233.22-23.55C96.38,168.44-33.44,201.78,19.12,339.79c25.28,66.35,127.01,101.62,191.91,107.04Z" style="fill: #C73659;"/><g id="daa_graphic_team-presentation-1-19"><rect class="cls-33_team-presentation-1-19 targetColor" x="102.18" y="92.68" width="275.32" height="164.53" rx="12.9" ry="12.9" style="fill: #C73659;"/><rect class="cls-2_team-presentation-1-19" x="152.36" y="103.67" width="177.47" height="11.42"/><path class="cls-26_team-presentation-1-19" d="M329.87,187.02c-8.61,16.7-29.13,23.27-45.83,14.66-16.7-8.61-23.27-29.13-14.66-45.83,5.83-11.32,17.5-18.44,30.24-18.44h.23v34.01l30.01,15.6Z"/><path class="cls-27_team-presentation-1-19" d="M333.64,171.47c0,5.43-1.29,10.77-3.78,15.6l-30.01-15.6v-34.01c18.7.12,33.79,15.31,33.79,34.01Z"/><rect class="cls-25_team-presentation-1-19" x="152.36" y="154.11" width="7.62" height="48.54"/><rect class="cls-31_team-presentation-1-19" x="164.46" y="168.45" width="7.62" height="34.18"/><rect class="cls-32_team-presentation-1-19" x="176.55" y="154.11" width="7.62" height="48.54"/><rect class="cls-30_team-presentation-1-19" x="188.65" y="145.01" width="7.62" height="57.64"/></g><g id="table_team-presentation-1-19"><rect class="cls-37_team-presentation-1-19 targetColor" x="398.09" y="286.29" width="6.09" height="110.79" style="fill: #C73659;"/><rect class="cls-28_team-presentation-1-19" x="398.09" y="286.29" width="6.09" height="110.79"/><rect class="cls-37_team-presentation-1-19 targetColor" x="192.1" y="278.26" width="255.38" height="8.31" style="fill: #C73659;"/><rect class="cls-29_team-presentation-1-19" x="192.1" y="278.26" width="255.38" height="8.31"/><rect class="cls-37_team-presentation-1-19 targetColor" x="206.24" y="286.29" width="6.09" height="110.79" style="fill: #C73659;"/><rect class="cls-37_team-presentation-1-19 targetColor" x="254.57" y="286.59" width="6.09" height="111.46" style="fill: #C73659;"/><rect class="cls-11_team-presentation-1-19" x="206.24" y="286.29" width="6.09" height="110.79"/><rect class="cls-8_team-presentation-1-19" x="254.57" y="286.59" width="6.09" height="111.46"/><rect class="cls-37_team-presentation-1-19 targetColor" x="438.73" y="286.58" width="6.09" height="111.47" style="fill: #C73659;"/><rect class="cls-9_team-presentation-1-19" x="438.73" y="286.58" width="6.09" height="111.47"/></g><g id="character_2_team-presentation-1-19"><path class="cls-37_team-presentation-1-19 targetColor" d="M452.2,328.12l14.66,58.17c.33,1.27,1.6,2.07,2.89,1.81h0c1.28-.26,2.13-1.46,1.96-2.75-1.53-11.26-8.16-60.19-8.49-60.83s-5.58.11-8.96.54c-1.35.19-2.3,1.43-2.11,2.79.01.09.03.18.05.27Z" style="fill: #C73659;"/><path class="cls-37_team-presentation-1-19 targetColor" d="M435.66,328.12l-14.66,58.17c-.33,1.27-1.6,2.07-2.89,1.81h0c-1.28-.26-2.13-1.46-1.96-2.75,1.53-11.26,8.16-60.19,8.49-60.83s5.58.11,8.96.54c1.35.19,2.3,1.43,2.11,2.79-.01.09-.03.18-.05.27Z" style="fill: #C73659;"/><path class="cls-10_team-presentation-1-19" d="M452.2,328.12l14.66,58.17c.33,1.27,1.6,2.07,2.89,1.81h0c1.28-.26,2.13-1.46,1.96-2.75-1.53-11.26-8.16-60.19-8.49-60.83s-5.58.11-8.96.54c-1.35.19-2.3,1.43-2.11,2.79.01.09.03.18.05.27Z"/><path class="cls-19_team-presentation-1-19" d="M435.66,328.12l-14.66,58.17c-.33,1.27-1.6,2.07-2.89,1.81h0c-1.28-.26-2.13-1.46-1.96-2.75,1.53-11.26,8.16-60.19,8.49-60.83s5.58.11,8.96.54c1.35.19,2.3,1.43,2.11,2.79-.01.09-.03.18-.05.27Z"/><path class="cls-37_team-presentation-1-19 targetColor" d="M485.75,259.45c-.53,2.6-1.95,4.91-2.98,7.35-6.82,16.27,4.19,37.46-6.37,51.58-4.17,5.57-11.02,8.64-17.9,9.69-6.87,1.05-13.9.32-20.82-.42l-10.07-1.06c-3.11-.33-6.28-.68-9.08-2.07-2.8-1.39-5.17-4.06-5.3-7.18-.17-3.85,2.93-6.97,5.7-9.65,11.2-10.84,20.93-23.1,28.94-36.47,4.41-7.43,9.78-17.31,18.91-19.37,6.32-1.44,21.01-2.37,18.97,7.62Z" style="fill: #C73659;"/><path class="cls-15_team-presentation-1-19" d="M481.63,256.43c-.53,2.6-1.95,4.91-2.98,7.36-6.82,16.26,4.19,37.46-6.37,51.57-4.17,5.57-11.02,8.64-17.9,9.7s-13.9.31-20.82-.43l-10.07-1.06c-3.11-.34-6.28-.69-9.08-2.12-2.8-1.43-5.17-4.05-5.3-7.17-.17-3.86,2.93-6.98,5.7-9.67,11.2-10.84,20.93-23.1,28.94-36.47,4.41-7.37,9.78-17.31,18.91-19.36,6.32-1.4,21.01-2.33,18.97,7.66Z"/><path class="cls-34_team-presentation-1-19" d="M362.37,361.48c-1.14,2.13-1.81,4.48-1.95,6.89,0,4.58,3.69,8.22,7.08,11.31,2.6-6.86,6.37-13.46,11.91-18.25,3.73-3.18,31.11-36.94,35.01-39.95,3.9-3.01,31.31-4.31,31.92-9.18.69-5.5-22.78-4.76-27.09-8.42-5.41-4.6-31.1,2.58-34.4,6.96-7.64,10.13-17.35,39.14-22.49,50.65Z"/><path class="cls-13_team-presentation-1-19" d="M362.51,361.56c-1.14,2.13-1.81,4.48-1.96,6.89.05,4.58,3.7,8.22,7.09,11.32,2.6-6.86,6.37-13.46,11.91-18.25,3.72-3.18,31.11-36.94,35.01-39.95,3.9-3.01,31.31-4.31,31.92-9.19.69-5.5-22.78-4.75-27.09-8.41-5.41-4.6-31.1,2.57-34.4,6.95-7.65,10.13-17.32,39.14-22.49,50.65Z"/><path class="cls-37_team-presentation-1-19 targetColor" d="M428.54,242.09c-.24-3.97.8-7.9,2.96-11.24,2.17-3.31,5.08-6.08,8.49-8.09,1.94-1.18,4.16-2.19,6.37-1.9,1.9.24,4.55-2.6,6.09-1.46,4.33,3.18,7.43,10.79,11.05,14.74.96,5.31,1.56,10.68,1.78,16.07l2.19,40.72c.36,6.72.55,14.07-3.5,19.45-10.15-3.69-20.03-8.09-29.56-13.17-.91-.4-1.72-1.01-2.37-1.77-.66-1.13-.97-2.42-.9-3.72-.4-10.14-.4-20.27,0-30.41.19-5.47-2.16-13.75-2.6-19.21Z" style="fill: #C73659;"/><path class="cls-12_team-presentation-1-19" d="M447.31,282.24c.35-2.12,1.06-4.24.66-6.37-.68-3.8-4.65-6.82-4.03-10.61.24-1.56,1.25-2.89,1.9-4.33,1.15-2.56,1.15-5.46,1.06-8.26-.1-3.84-.29-7.69-.57-11.52-1.8,1.34-3.27,3.06-4.31,5.05l-7.99,12.88c-.9,1.33-1.65,2.75-2.25,4.24-.71,2.38-1.03,4.86-.94,7.34l-.36,18.51c0,1.77,0,3.71,1.16,5.05.82.82,1.84,1.4,2.96,1.7,3.73,1.26,10.69,3.58,12.84-.59,1.87-3.61-.84-8.81-.12-13.09Z"/><path class="cls-34_team-presentation-1-19" d="M436.37,290.83l-29.18,3.66c-4.93.63-9.95,1.26-14.53,3.18s-8.76,5.37-10.46,10.05c-4.01,11.05-3.1,22.64.55,33.81,2.98,9.08,5.95,18.16,8.92,27.24.69,2.63,1.85,5.12,3.42,7.35,1.7,2.12,4.4,3.66,7.09,3.18,1.01-.13,1.92-.69,2.49-1.53.38-.81.55-1.71.47-2.6l.06-49.12c0-2.82.25-6.12,2.61-7.67,1.53-1,3.48-.92,5.3-.82l32.44,1.9c4.67.28,20.43-5.75,19.47-12.34-1.28-8.72-19.9-17.41-28.66-16.31Z"/><path class="cls-34_team-presentation-1-19" d="M398.12,376.58c-.77,1.49-.35,3.36-1,4.92-.58,1.13-1.43,2.1-2.48,2.81l-7.58,6.14c-1.33,1.06-2.81,2.62-2.28,4.24s2.51,1.99,4.17,2.07c4.23.13,8.47-.04,12.68-.52,2.64-.25,5.53-.67,7.3-2.64.89-1.08,1.46-2.38,1.66-3.77.81-4.8-1.49-9.55-3.71-13.79-.15-.41-.46-.75-.86-.93-.31-.05-.63-.02-.91.11-1.74.58-3.39,1.38-4.92,2.4"/><path class="cls-34_team-presentation-1-19" d="M338.43,378.87c-.52.4-.96.89-1.28,1.46-.68,1.71-.14,3.67,1.32,4.8,1.45,1.06,3.15,1.73,4.93,1.94,4.25.81,8.58,1.08,12.9.82,2.19.26,4.31-.88,5.3-2.85,1.97-3.07,3.74-6.26,5.3-9.55,1.2-2.56-1.22-3.88-3.47-4.41-2.02-.48-3.65.46-5.44,1.26-4.11,1.86-8.54,2.24-12.85,3.38-2.44.56-4.73,1.63-6.72,3.15Z"/><path class="cls-36_team-presentation-1-19" d="M422.47,211.42c1.69,2.12,2.38,4.98,3.96,7.22.81,1.4,2.25,2.3,3.86,2.42,1.96-.07,3.33-1.92,5.05-2.88.75,1.19,2.06,1.91,3.47,1.91,1.39-.01,2.75-.34,3.99-.97,2.15-.96,4.14-2.26,5.89-3.83.24-.18.43-.43.55-.71.08-.3.08-.62,0-.92l-3.59-16.66c-.34-2.37-1.2-4.64-2.51-6.64-1.06-1.28-2.41-2.29-3.95-2.95-5.39-2.48-12.24-1.42-15.91,3.44-2.55,3.34-.55,7.43-1.06,11.21-.25,1.73-.98,3.31-1.3,5-.5,1.94.46,2.94,1.56,4.35Z"/><path class="cls-35_team-presentation-1-19" d="M421.56,189.28c1.89,2.12,5.08,2.46,7.95,2.44,1.46-.1,2.93,0,4.36.3,1.45.32,2.67,1.3,3.29,2.64.48,1.23.2,2.62.34,3.93.02.58.25,1.14.65,1.57.42.42,1.1.45,1.55.05.5-.55.48-1.79,1.2-1.67.24.07.44.23.54.46.89,1.47.86,3.32-.08,4.75-.6.89-1.57,2.02-.88,2.83.4.47,1.06.46,1.68.67,1.9.73,1.89,3.79,3.73,4.68.88.36,1.87.26,2.66-.27.77-.53,1.44-1.2,1.95-1.97,3.7-4.97,5.96-10.86,6.54-17.03.28-1.88.09-3.79-.54-5.58-.81-1.73-2.05-3.23-3.6-4.35-2.23-1.79-5.25-3.29-7.87-2.12-.82.36-1.68.98-2.51.67-.38-.18-.71-.44-.98-.75-3.7-3.68-9.76-4.33-14.62-2.4-1.82.73-5.42,1.49-6.37,3.35-1.07,2.6-.68,5.56,1.02,7.8Z"/><path class="cls-37_team-presentation-1-19 targetColor" d="M433.46,264.12l-11.47,10.2c-2.58,2.3-5.6,4.75-9.05,4.43-2.4-.35-4.52-1.72-5.82-3.77-1.27-2.03-2.18-4.27-2.67-6.61-2.36-9.32-2.89-19.01-1.57-28.54.02-.4.15-.79.38-1.12.47-.41,1.09-.6,1.71-.54l5.4-.16c1.39-.36,2.81.47,3.17,1.86,0,.01,0,.03.01.04l5.06,11.51c3.81-3.99,9.83-17.24,13.63-21.22.94-1,10.02-9.2,14.41,9.05,1.52,6.37-8.25,20.48-13.19,24.87Z" style="fill: #C73659;"/><path class="cls-36_team-presentation-1-19" d="M404.13,229.9c.05-.96.28-1.91.7-2.78.53-.88,1.26-1.63,2.12-2.2,1.63-1.18,3.41-2.12,5.3-2.8.67-.3,1.4-.42,2.12-.35.74.14,1.41.51,1.92,1.06,1.98,2.01,2.58,5,1.53,7.62-1.19,2.8-4.13,4.67-4.92,7.61-.34,1.26-.28,2.73-1.11,3.73-.89.85-2.07,1.31-3.3,1.29-3.03.29-3.84-.64-4.07-3.3-.41-3.28-.51-6.59-.29-9.89Z"/><path class="cls-37_team-presentation-1-19 targetColor" d="M436.16,225.56v-4.03c0-.26.05-.51.17-.74.17-.21.39-.36.65-.45,1.86-.77,3.88-1.14,5.7-2.01,2.29-1.06,4.36-3.01,6.9-2.98.26-.03.51.05.71.21.14.15.23.33.27.52.31,1,.57,2.01.8,3.03.06.15.06.32,0,.48-.1.14-.24.24-.4.28l-2.62.98c-4.19,1.54-8.5,2.17-12.16,4.71Z" style="fill: #C73659;"/></g><g id="character_1_team-presentation-1-19"><path class="cls-37_team-presentation-1-19 targetColor" d="M41.37,392.02c-.41.8-.92,1.53-1.35,2.32-1.15,2.17-1.56,4.65-1.17,7.08.22,2.08,1.42,3.94,3.24,4.99,1.32.52,2.77.67,4.17.41,2.23-.25,4.6-1,5.81-2.88.69-1.31,1.05-2.76,1.06-4.24.17-2.12.3-4.37-.63-6.37-.71-1.51-2.02-2.71-2.58-4.24-.49-1.35-.47-2.99-1.55-3.93-1.29-1.11-3.88-.43-4.89.83-1.26,1.6-1.19,4.22-2.12,6.03Z" style="fill: #C73659;"/><path class="cls-37_team-presentation-1-19 targetColor" d="M68.72,385.22c-.43,1.3-.87,2.78-.25,4.01.79,1.59,2.83,1.96,4.38,2.82,1.55.86,2.54,2.12,3.99,2.86,1.54.71,3.22,1.07,4.92,1.06,2.21.11,4.42.11,6.63,0,1.64.03,3.26-.29,4.77-.92.38-.16.71-.41.97-.73.84-1.15-.11-2.73-1.14-3.68-1.76-1.62-3.86-2.83-6.14-3.52-2.76-.83-6.02-1.06-7.74-3.37-1.28-1.7-1.41-4.24-3.1-5.5-4.71-3.56-6.4,4.31-7.29,6.97Z" style="fill: #C73659;"/><path class="cls-34_team-presentation-1-19" d="M39.12,368.79l1.06,13.12c.29,3.39,1.06,7.49,4.24,8.67,2.51.93,5.41-.63,6.87-2.88s1.84-5.03,2.12-7.69c2.84-25.09,3.1-50.6,8.93-75.16,3.87,22.33,6.12,44.91,6.72,67.56-.08,2.23.23,4.46.91,6.59.73,2.16,2.54,3.77,4.76,4.24,2.62.35,5.11-1.61,6.24-4.01,1.12-2.4,1.19-5.15,1.23-7.8l1.5-95.94c.06-4.4.29-9.21,3.18-12.52-13.22-.07-27.58.59-40.79.52-.84-.09-1.69.08-2.43.51-.75.73-1.19,1.73-1.22,2.78-5.04,33.76-6.16,67.98-3.33,102Z"/><path class="cls-18_team-presentation-1-19" d="M38.93,368.79l1.06,13.12c.28,3.39,1.06,7.49,4.24,8.67,2.53.93,5.42-.63,6.89-2.88,1.46-2.25,1.84-5.03,2.12-7.69,2.84-25.09,3.1-50.6,8.93-75.16,3.87,22.33,6.11,44.91,6.71,67.56-.07,2.23.24,4.46.92,6.59.72,2.15,2.53,3.77,4.75,4.24,2.63.35,5.12-1.61,6.25-4.01s1.19-5.15,1.23-7.8l1.49-95.94c.07-4.4.29-9.21,3.18-12.52-13.22-.07-27.58.59-40.79.52-.84-.1-1.7.08-2.43.51-.75.73-1.19,1.73-1.22,2.78-5.04,33.76-6.16,67.98-3.33,102Z"/><path class="cls-37_team-presentation-1-19 targetColor" d="M125.89,226.78c.02.91-.27,1.79-.83,2.5-.6.51-1.34.84-2.12.94-9.9,2.31-20.16,2.72-30.31,3.11-1.62.05-3.63-.08-4.32-1.57v5.43c0,5.9-.13,12.02,0,17.71.18,2.44-.05,4.88-.68,7.25-1.47,4.56-5.8,7.73-10.39,9.12s-9.48,1.24-14.28,1.06l-15.17-.45c-1.32.05-2.63-.16-3.86-.62-3.42-1.52-4.08-6-4.24-9.73-.47-10.75-.25-21.89.15-32.96.29-7.9.67-15.77.97-23.43.14-3.49,2.4-6.63,5.23-8.66,2.94-1.9,6.19-3.27,9.6-4.06,3.4-.79,6.71-1.96,9.86-3.47,6.05.94,11.86,3.08,17.07,6.3,5.47,3.14,9.72,8.02,12.09,13.86.91,2.42,1.55,5.19,3.64,6.72s4.71,1.28,7.17,1.12c5.05-.3,10.12-.28,15.17.07,1.64.11,3.5.36,4.51,1.68.59.95.89,2.06.85,3.18.07,1.63.03,3.26-.11,4.88Z" style="fill: #C73659;"/><path class="cls-14_team-presentation-1-19" d="M63.67,237.94c-1.06-.57-2.12-1.06-3.08-1.67s-1.8-1.23-2.67-1.88l-5.47-4.14c-.39-.28-.74-.6-1.06-.97-.7-.91-1.01-2.05-.87-3.18.15-1.13.48-2.22.98-3.25.62-1.43,1.34-3.01.89-4.52-.54-1.88-2.64-2.82-4.56-3.18-.31-.07-.64-.07-.95,0-.6.22-1.06.69-1.27,1.29-.72,1.75-1.13,3.61-1.22,5.5l-.69,6.61c-.11.7-.11,1.42,0,2.12.45,1.97,2.45,3.11,4.15,4.24,2.62,1.88,5.13,3.89,7.54,6.03,2.42,2.15,5.3,3.71,8.41,4.57,1.3.34,2.67.34,3.97,0,.85-.24,1.62-.72,2.22-1.38.97-1.06.31-1.38-.67-2.19-1.76-1.5-3.64-2.85-5.63-4.02Z"/><path class="cls-21_team-presentation-1-19" d="M77.85,259.16s-5.91,2.33-10.61-.82c-4.7-3.15-11.81-7.83-11.81-7.83l-10.97-4.24v18.39s.28,5.78,3.29,7.28c-1.32.05-2.63-.16-3.86-.62-3.42-1.52-4.08-6-4.24-9.73-.47-10.75-.25-21.89.15-32.96l30.77,23.54,7.29,6.99Z"/><path class="cls-37_team-presentation-1-19 targetColor" d="M30.73,225.31c-.57,1.26-.82,2.63-.73,4.01.31,1.44,1.03,2.76,2.07,3.8,5.79,6.68,14.1,10.54,22.14,14.2,1.31.71,2.76,1.15,4.24,1.28,3.83,0,5.4-2.41,5.94-6.2.12-.59.1-1.2-.06-1.78-.44-.86-1.14-1.57-2.01-2.01-4.48-2.89-10.61-5.06-14.38-8.84-.55-.47-.93-1.11-1.06-1.82-.08-.88,8.66-15.09,6.63-19.96-2.03-4.87-4.6-12.35-9.7-9.37-7.28,4.31-10.91,20.59-13.09,26.68Z" style="fill: #C73659;"/><path class="cls-36_team-presentation-1-19" d="M133.9,214.81c.25-.16.55-.19.83-.1.22.16.34.42.34.69.14,1.08,0,2.17-.4,3.18l5.69.51c1.78.16,3.87.51,4.66,2.12s-.43,3.83-2.03,4.93c-2.82,1.95-6.45,2.22-9.88,2.28-2.04.14-4.09-.06-6.07-.57-2.98-.92-6.5-4.35-4.14-7.43,2.08-2.8,8-4.23,11-5.62Z"/><path class="cls-36_team-presentation-1-19" d="M74.2,243.25c.64.02,1.28.19,1.85.49.58.33.85,1.01.67,1.64-.49,1.22-2.83.92-3.03,2.23,0,.57.27,1.1.71,1.46l3.36,3.6c.87.82,1.57,1.82,2.06,2.92.46,1.14.18,2.45-.72,3.3-.96.57-2.11.73-3.18.42-6.69-1.19-12.5-5.29-15.85-11.19-4.87-8.75,10.22-5.27,14.14-4.87Z"/><path class="cls-36_team-presentation-1-19" d="M85.71,166.59c-.28,2.85-.57,5.72-.86,8.57-.01.33-.07.65-.17.97-.13.33-.35.62-.49.95-.21.67-.26,1.37-.16,2.06.21,3.18,0,6.73-2.12,9.18-.37.44-.81.83-1.29,1.14-1.4.71-3,.93-4.54.63-.42-.06-.84-.06-1.25,0-.28.02-.54.14-.73.34-.2.22-.35.49-.43.77-.21.58-.39,1.17-.53,1.77-.09.72-.38,1.4-.84,1.96-.51.42-1.17.62-1.82.56-.3,0-.61-.05-.9-.13-1.42-.42-2.73-1.12-3.88-2.05-1.57-.84-2.48-2.55-2.28-4.32-.16-3.03-.33-6.05-.49-9.06-.23-4.24-.42-8.63,1.29-12.49,2.7-6.07,9.45-9.24,15.85-7.43.88.22,1.72.58,2.49,1.06,1.04.72,1.95,1.62,2.68,2.65.77,1.01.59,1.62.48,2.85Z"/><path class="cls-34_team-presentation-1-19" d="M82.03,164.44c-1.64.15-3.29.15-4.93,0-1.83-.06-3.64.31-5.3,1.06-2.6,1.32-4.33,3.88-4.6,6.78-.08.98-.19,2.25-1.15,2.48s-1.51-.59-2.32-.68c-.97-.01-1.8.71-1.91,1.68-.07.94.18,1.88.71,2.66.53.77,1.01,1.58,1.42,2.42.67,1.8.26,3.83-1.06,5.23-2.06-2.44-3.38-5.42-3.82-8.58-.43-3.15-.41-6.34.06-9.48.09-1.11.39-2.18.87-3.18.28-.49.65-.93.92-1.42.45-.81.66-1.73,1.06-2.58,1.07-2.23,2.98-3.94,5.3-4.76,2.31-.81,4.76-1.13,7.19-.93,1.54.19,3.1.13,4.63-.18,2.56-.73,8.33-3.43,9.55.81,1.17,4-3.01,8.06-6.62,8.69Z"/><path class="cls-1_team-presentation-1-19" d="M72.54,174.21c-.6-.1-1.19.24-1.4.82-.29.59-.43,1.24-.4,1.89.05.65.4,1.25.94,1.61.41.2.86.3,1.32.29.92.04,1.83-.01,2.74-.16.13,0,.25-.05.35-.13.1-.12.15-.28.14-.43l.12-1.92c.05-.37.02-.75-.08-1.11-.5-1.33-2.65-.93-3.71-.85Z"/><path class="cls-1_team-presentation-1-19" d="M80.56,174.21c-.4-.01-.8.12-1.11.37-.12.13-.21.28-.28.45-.29.58-.43,1.23-.4,1.89.03.67.39,1.27.95,1.62.41.2.85.29,1.3.29.92.04,1.84-.01,2.75-.16.12,0,.24-.05.34-.13.1-.12.15-.28.14-.43l.12-1.92c.06-.37.03-.75-.08-1.11-.5-1.34-2.65-.94-3.72-.86Z"/><path class="cls-36_team-presentation-1-19" d="M63.46,173.23c-.18-.06-.37-.08-.56-.06-.69.04-1.34.3-1.87.74-.22.18-.4.39-.53.64-.18.44-.24.91-.16,1.38.06.9.38,1.77.92,2.49.34.41,2.2,2.19,2.73,2.22s1.62-.82,1.99-1.26c.52-.65-.66-2.99-.71-3.84-.28-.98-.93-1.81-1.81-2.3Z"/><path class="cls-36_team-presentation-1-19" d="M63.65,176.67c.02-.13.02-.26,0-.39-.03-.12-.08-.24-.16-.34-.36-.46-.94-.69-1.52-.58-.35.05-.64.28-.77.6-.08.3-.04.62.11.9.14.37.32.73.53,1.06.21.33.48.61.81.82.33.21.74.26,1.11.14.34-.13.75-.6.48-.95-.14-.17-.35-.22-.47-.43-.12-.25-.16-.54-.12-.82Z"/><path class="cls-17_team-presentation-1-19" d="M74.86,190.05c-.28.02-.54.14-.73.34-.2.22-.35.49-.43.77-.21.58-.39,1.17-.53,1.77-.09.72-.38,1.4-.84,1.96-.51.42-1.17.62-1.82.56-.3,0-.61-.05-.9-.13-.3-.71-.42-1.48-.33-2.25.04-.67.12-1.33.24-1.98.01-.32.14-.63.35-.87.34-.25.75-.35,1.17-.3h3.03c.27.02.53.06.8.12Z"/><path class="cls-37_team-presentation-1-19 targetColor" d="M87.86,237.19l.5-5.42v5.43h-.5Z" style="fill: #C73659;"/><path class="cls-20_team-presentation-1-19" d="M125.89,226.78c.02.91-.27,1.79-.83,2.5-.6.51-1.34.84-2.12.94-9.9,2.31-20.16,2.72-30.31,3.11-1.62.05-3.63-.08-4.32-1.57v-14.35s2.8,8.78,7.43,8.49c4.63-.3,27.72-1.37,27.72-1.37l2.43,2.25Z"/></g><g id="plant_team-presentation-1-19"><path class="cls-37_team-presentation-1-19 targetColor" d="M170.54,354.22c1.8-5.8,4.6-11.44,9.01-15.63,4.4-4.19,10.61-6.77,16.59-5.89,2.17.32,4.46,1.21,5.55,3.12,1.02,2.12.78,4.64-.62,6.54-1.4,1.84-3.11,3.42-5.07,4.65-4.3,2.86-8.28,6.19-11.86,9.91-2.6,2.8-4.58,6.12-5.8,9.74-.81,2.54-.06,6.67-2.12,8.55-1.65,1.31-3.92,1.51-5.78.52-2.66-1.5-2.22-5.22-2.19-7.85.11-4.64.88-9.24,2.29-13.65Z" style="fill: #C73659;"/><path class="cls-16_team-presentation-1-19" d="M170.54,354.22c1.8-5.8,4.6-11.44,9.01-15.63,4.4-4.19,10.61-6.77,16.59-5.89,2.17.32,4.46,1.21,5.55,3.12,1.02,2.12.78,4.64-.62,6.54-1.4,1.84-3.11,3.42-5.07,4.65-4.3,2.86-8.28,6.19-11.86,9.91-2.6,2.8-4.58,6.12-5.8,9.74-.81,2.54-.06,6.67-2.12,8.55-1.65,1.31-3.92,1.51-5.78.52-2.66-1.5-2.22-5.22-2.19-7.85.11-4.64.88-9.24,2.29-13.65Z"/><path class="cls-23_team-presentation-1-19" d="M171.41,362.31c-.24-.97-.39-1.95-.46-2.95,0-1.84.82-3.58,2.25-4.73.68-.5,1.39-.95,2.12-1.37,1.58-.84,2.67-2.38,2.92-4.16,0-.67-.15-1.34-.12-1.99-.02-.69.38-1.31,1-1.6.77-.1,1.53.26,1.93.93.84,1.18,1.31,2.58,1.35,4.03.02,1.44-.19,2.87-.64,4.24-.6,2.49-2.07,4.68-4.15,6.19-.91.46-1.78.98-2.63,1.54-1.16,1.1-2,2.49-2.45,4.02-.06.16-.79,6.58-.92,6.68-.91.7.1-7.25.13-7.56.02-1.1-.09-2.2-.33-3.27Z"/><path class="cls-37_team-presentation-1-19 targetColor" d="M154.66,367.46c-1.6-1.46-3.45-2.62-5.45-3.43-3.92-1.92-7.71-4.09-11.35-6.49-1.7-1.12-3.47-2.45-4.06-4.4s.06-3.82.69-5.65,1.69-4.3,3.76-4.72c1.12-.13,2.26.09,3.26.62,6.36,2.75,11.6,7.57,14.85,13.69.79,1.52,1.5,3.08,2.12,4.67,1.47,3.77,2.7,7.63,3.66,11.56.68,2.8-1.42,7.87-3.76,3.69-1.82-3.1-1.04-6.71-3.71-9.53Z" style="fill: #C73659;"/><path class="cls-7_team-presentation-1-19" d="M154.66,367.46c-1.6-1.46-3.45-2.62-5.45-3.43-3.92-1.92-7.71-4.09-11.35-6.49-1.7-1.12-3.47-2.45-4.06-4.4s.06-3.82.69-5.65,1.69-4.3,3.76-4.72c1.12-.13,2.26.09,3.26.62,6.36,2.75,11.6,7.57,14.85,13.69.79,1.52,1.5,3.08,2.12,4.67,1.47,3.77,2.7,7.63,3.66,11.56.68,2.8-1.42,7.87-3.76,3.69-1.82-3.1-1.04-6.71-3.71-9.53Z"/><path class="cls-24_team-presentation-1-19" d="M157.52,362.5c0-.89-.09-1.78-.25-2.66-.4-1.6-1.5-2.94-3-3.63-.69-.28-1.4-.52-2.12-.72-1.57-.37-2.86-1.48-3.46-2.97-.17-.58-.17-1.2-.35-1.77-.13-.6-.61-1.06-1.22-1.17-.68,0-1.2.6-1.46,1.24-.48,1.21-.58,2.53-.29,3.8.29,1.26.79,2.46,1.49,3.55,1.07,2.03,2.84,3.62,4.98,4.47.89.2,1.77.46,2.63.76,1.26.69,2.3,1.72,3.02,2.96.08.13,3.29,8.49,3.44,8.49.94.41-2.84-9.18-2.94-9.45-.27-.94-.43-1.92-.46-2.9Z"/><path class="cls-37_team-presentation-1-19 targetColor" d="M159.21,366.88c-1.83-2.69-3.41-5.53-4.74-8.49-2.11-5.62-1.57-11.89,1.49-17.06,1.55-2.29,3.21-4.5,5-6.61,3.49-4.58,6.04-10.61,4.24-16.04-.7-2.12-1.97-3.91-2.62-5.99s-.49-4.69,1.23-6.03c1.96-1.52,4.86-.66,6.96.68,3.91,2.64,6.94,6.39,8.69,10.78,1.73,4.37,2.71,9,2.9,13.7.52,8.26-.64,17.06-5.67,23.65-2.02,2.63-4.59,4.85-6.3,7.69-2.66,4.46-2.91,9.9-2.92,15.09.05.57-.06,1.14-.31,1.66-1.99,3.18-2.86-2.43-3.18-3.43-.94-3.32-2.99-6.66-4.76-9.59Z" style="fill: #C73659;"/><path class="cls-22_team-presentation-1-19" d="M159.21,366.88c-1.83-2.69-3.41-5.53-4.74-8.49-2.11-5.62-1.57-11.89,1.49-17.06,1.55-2.29,3.21-4.5,5-6.61,3.49-4.58,6.04-10.61,4.24-16.04-.7-2.12-1.97-3.91-2.62-5.99s-.49-4.69,1.23-6.03c1.96-1.52,4.86-.66,6.96.68,3.91,2.64,6.94,6.39,8.69,10.78,1.73,4.37,2.71,9,2.9,13.7.52,8.26-.64,17.06-5.67,23.65-2.02,2.63-4.59,4.85-6.3,7.69-2.66,4.46-2.91,9.9-2.92,15.09.05.57-.06,1.14-.31,1.66-1.99,3.18-2.86-2.43-3.18-3.43-.94-3.32-2.99-6.66-4.76-9.59Z"/><path class="cls-6_team-presentation-1-19" d="M162.72,366.7c-.56-.83-1.04-1.7-1.45-2.61-.65-1.72-.48-3.64.46-5.22.47-.71.99-1.38,1.54-2.03,1.06-1.4,1.85-3.25,1.28-4.91-.21-.64-.6-1.2-.81-1.84-.25-.64-.1-1.36.38-1.85.68-.36,1.52-.29,2.12.2,1.2.81,2.13,1.97,2.66,3.31.54,1.35.84,2.79.89,4.24.3,2.55-.32,5.11-1.74,7.25-.69.75-1.33,1.53-1.93,2.36-.71,1.43-1.01,3.02-.89,4.62.01.18-.02.35-.1.51-.62.99-.88-.74-.97-1.06-.35-1.05-.84-2.05-1.45-2.97Z"/><polygon class="cls-37_team-presentation-1-19 targetColor" points="152.47 373.41 180.72 373.41 174.05 394.99 158.26 394.99 152.47 373.41" style="fill: #C73659;"/><polygon class="cls-4_team-presentation-1-19" points="152.47 373.41 180.72 373.41 174.05 394.99 158.26 394.99 152.47 373.41"/><rect class="cls-37_team-presentation-1-19 targetColor" x="151.13" y="373.45" width="30.6" height="6.04" style="fill: #C73659;"/><rect class="cls-5_team-presentation-1-19" x="151.13" y="373.45" width="30.6" height="6.04"/></g></svg>