<svg xmlns="http://www.w3.org/2000/svg" version="1.1" xmlns:xlink="http://www.w3.org/1999/xlink" xmlns:svgjs="http://svgjs.dev/svgjs" width="1440" height="560" preserveAspectRatio="none" viewBox="0 0 1440 560"><g mask="url(&quot;#SvgjsMask1055&quot;)" fill="none"><rect width="1440" height="560" x="0" y="0" fill="#0e2a47"></rect><path d="M165.78 176.8L230.73 214.3L230.73 289.3L165.78 326.8L100.82 289.3L100.82 214.3zM165.78 401.8L230.73 439.3L230.73 514.3L165.78 551.8L100.82 514.3L100.82 439.3zM295.69 176.8L360.64 214.3L360.64 289.3L295.69 326.8L230.73 289.3L230.73 214.3zM295.69 401.8L360.64 439.3L360.64 514.3L295.69 551.8L230.73 514.3L230.73 439.3zM425.59 -48.2L490.55 -10.7L490.55 64.3L425.59 101.8L360.64 64.3L360.64 -10.7zM490.55 289.3L555.5 326.8L555.5 401.8L490.55 439.3L425.59 401.8L425.59 326.8zM425.59 401.8L490.55 439.3L490.55 514.3L425.59 551.8L360.64 514.3L360.64 439.3zM555.5 176.8L620.45 214.3L620.45 289.3L555.5 326.8L490.55 289.3L490.55 214.3zM620.45 289.3L685.41 326.8L685.41 401.8L620.45 439.3L555.5 401.8L555.5 326.8zM555.5 401.8L620.45 439.3L620.45 514.3L555.5 551.8L490.55 514.3L490.55 439.3zM750.36 64.3L815.32 101.8L815.32 176.8L750.36 214.3L685.41 176.8L685.41 101.8zM685.41 176.8L750.36 214.3L750.36 289.3L685.41 326.8L620.45 289.3L620.45 214.3zM685.41 401.8L750.36 439.3L750.36 514.3L685.41 551.8L620.45 514.3L620.45 439.3zM815.31 -48.2L880.27 -10.7L880.27 64.3L815.31 101.8L750.36 64.3L750.36 -10.7zM815.31 176.8L880.27 214.3L880.27 289.3L815.31 326.8L750.36 289.3L750.36 214.3zM880.27 289.3L945.22 326.8L945.22 401.8L880.27 439.3L815.31 401.8L815.31 326.8zM945.22 401.8L1010.18 439.3L1010.18 514.3L945.22 551.8L880.27 514.3L880.27 439.3zM1010.18 514.3L1075.13 551.8L1075.13 626.8L1010.18 664.3L945.22 626.8L945.22 551.8zM1075.13 -48.2L1140.08 -10.7L1140.08 64.3L1075.13 101.8L1010.18 64.3L1010.18 -10.7zM1140.08 64.3L1205.04 101.8L1205.04 176.8L1140.08 214.3L1075.13 176.8L1075.13 101.8zM1075.13 401.8L1140.08 439.3L1140.08 514.3L1075.13 551.8L1010.18 514.3L1010.18 439.3zM1140.08 514.3L1205.04 551.8L1205.04 626.8L1140.08 664.3L1075.13 626.8L1075.13 551.8zM1529.81 289.3L1594.76 326.8L1594.76 401.8L1529.81 439.3L1464.85 401.8L1464.85 326.8zM1529.81 514.3L1594.76 551.8L1594.76 626.8L1529.81 664.3L1464.85 626.8L1464.85 551.8z" stroke="#03305d" stroke-width="2"></path><path d="M158.28 176.8 a7.5 7.5 0 1 0 15 0 a7.5 7.5 0 1 0 -15 0zM223.23 214.3 a7.5 7.5 0 1 0 15 0 a7.5 7.5 0 1 0 -15 0zM223.23 289.3 a7.5 7.5 0 1 0 15 0 a7.5 7.5 0 1 0 -15 0zM158.28 326.8 a7.5 7.5 0 1 0 15 0 a7.5 7.5 0 1 0 -15 0zM93.32 289.3 a7.5 7.5 0 1 0 15 0 a7.5 7.5 0 1 0 -15 0zM93.32 214.3 a7.5 7.5 0 1 0 15 0 a7.5 7.5 0 1 0 -15 0zM158.28 401.8 a7.5 7.5 0 1 0 15 0 a7.5 7.5 0 1 0 -15 0zM223.23 439.3 a7.5 7.5 0 1 0 15 0 a7.5 7.5 0 1 0 -15 0zM223.23 514.3 a7.5 7.5 0 1 0 15 0 a7.5 7.5 0 1 0 -15 0zM158.28 551.8 a7.5 7.5 0 1 0 15 0 a7.5 7.5 0 1 0 -15 0zM93.32 514.3 a7.5 7.5 0 1 0 15 0 a7.5 7.5 0 1 0 -15 0zM93.32 439.3 a7.5 7.5 0 1 0 15 0 a7.5 7.5 0 1 0 -15 0zM288.19 176.8 a7.5 7.5 0 1 0 15 0 a7.5 7.5 0 1 0 -15 0zM353.14 214.3 a7.5 7.5 0 1 0 15 0 a7.5 7.5 0 1 0 -15 0zM353.14 289.3 a7.5 7.5 0 1 0 15 0 a7.5 7.5 0 1 0 -15 0zM288.19 326.8 a7.5 7.5 0 1 0 15 0 a7.5 7.5 0 1 0 -15 0zM288.19 401.8 a7.5 7.5 0 1 0 15 0 a7.5 7.5 0 1 0 -15 0zM353.14 439.3 a7.5 7.5 0 1 0 15 0 a7.5 7.5 0 1 0 -15 0zM353.14 514.3 a7.5 7.5 0 1 0 15 0 a7.5 7.5 0 1 0 -15 0zM288.19 551.8 a7.5 7.5 0 1 0 15 0 a7.5 7.5 0 1 0 -15 0zM418.09 -48.2 a7.5 7.5 0 1 0 15 0 a7.5 7.5 0 1 0 -15 0zM483.05 -10.7 a7.5 7.5 0 1 0 15 0 a7.5 7.5 0 1 0 -15 0zM483.05 64.3 a7.5 7.5 0 1 0 15 0 a7.5 7.5 0 1 0 -15 0zM418.09 101.8 a7.5 7.5 0 1 0 15 0 a7.5 7.5 0 1 0 -15 0zM353.14 64.3 a7.5 7.5 0 1 0 15 0 a7.5 7.5 0 1 0 -15 0zM353.14 -10.7 a7.5 7.5 0 1 0 15 0 a7.5 7.5 0 1 0 -15 0zM483.05 289.3 a7.5 7.5 0 1 0 15 0 a7.5 7.5 0 1 0 -15 0zM548 326.8 a7.5 7.5 0 1 0 15 0 a7.5 7.5 0 1 0 -15 0zM548 401.8 a7.5 7.5 0 1 0 15 0 a7.5 7.5 0 1 0 -15 0zM483.05 439.3 a7.5 7.5 0 1 0 15 0 a7.5 7.5 0 1 0 -15 0zM418.09 401.8 a7.5 7.5 0 1 0 15 0 a7.5 7.5 0 1 0 -15 0zM418.09 326.8 a7.5 7.5 0 1 0 15 0 a7.5 7.5 0 1 0 -15 0zM483.05 514.3 a7.5 7.5 0 1 0 15 0 a7.5 7.5 0 1 0 -15 0zM418.09 551.8 a7.5 7.5 0 1 0 15 0 a7.5 7.5 0 1 0 -15 0zM548 176.8 a7.5 7.5 0 1 0 15 0 a7.5 7.5 0 1 0 -15 0zM612.95 214.3 a7.5 7.5 0 1 0 15 0 a7.5 7.5 0 1 0 -15 0zM612.95 289.3 a7.5 7.5 0 1 0 15 0 a7.5 7.5 0 1 0 -15 0zM483.05 214.3 a7.5 7.5 0 1 0 15 0 a7.5 7.5 0 1 0 -15 0zM677.91 326.8 a7.5 7.5 0 1 0 15 0 a7.5 7.5 0 1 0 -15 0zM677.91 401.8 a7.5 7.5 0 1 0 15 0 a7.5 7.5 0 1 0 -15 0zM612.95 439.3 a7.5 7.5 0 1 0 15 0 a7.5 7.5 0 1 0 -15 0zM612.95 514.3 a7.5 7.5 0 1 0 15 0 a7.5 7.5 0 1 0 -15 0zM548 551.8 a7.5 7.5 0 1 0 15 0 a7.5 7.5 0 1 0 -15 0zM742.86 64.3 a7.5 7.5 0 1 0 15 0 a7.5 7.5 0 1 0 -15 0zM807.82 101.8 a7.5 7.5 0 1 0 15 0 a7.5 7.5 0 1 0 -15 0zM807.82 176.8 a7.5 7.5 0 1 0 15 0 a7.5 7.5 0 1 0 -15 0zM742.86 214.3 a7.5 7.5 0 1 0 15 0 a7.5 7.5 0 1 0 -15 0zM677.91 176.8 a7.5 7.5 0 1 0 15 0 a7.5 7.5 0 1 0 -15 0zM677.91 101.8 a7.5 7.5 0 1 0 15 0 a7.5 7.5 0 1 0 -15 0zM742.86 289.3 a7.5 7.5 0 1 0 15 0 a7.5 7.5 0 1 0 -15 0zM742.86 439.3 a7.5 7.5 0 1 0 15 0 a7.5 7.5 0 1 0 -15 0zM742.86 514.3 a7.5 7.5 0 1 0 15 0 a7.5 7.5 0 1 0 -15 0zM677.91 551.8 a7.5 7.5 0 1 0 15 0 a7.5 7.5 0 1 0 -15 0zM807.81 -48.2 a7.5 7.5 0 1 0 15 0 a7.5 7.5 0 1 0 -15 0zM872.77 -10.7 a7.5 7.5 0 1 0 15 0 a7.5 7.5 0 1 0 -15 0zM872.77 64.3 a7.5 7.5 0 1 0 15 0 a7.5 7.5 0 1 0 -15 0zM807.81 101.8 a7.5 7.5 0 1 0 15 0 a7.5 7.5 0 1 0 -15 0zM742.86 -10.7 a7.5 7.5 0 1 0 15 0 a7.5 7.5 0 1 0 -15 0zM807.81 176.8 a7.5 7.5 0 1 0 15 0 a7.5 7.5 0 1 0 -15 0zM872.77 214.3 a7.5 7.5 0 1 0 15 0 a7.5 7.5 0 1 0 -15 0zM872.77 289.3 a7.5 7.5 0 1 0 15 0 a7.5 7.5 0 1 0 -15 0zM807.81 326.8 a7.5 7.5 0 1 0 15 0 a7.5 7.5 0 1 0 -15 0zM937.72 326.8 a7.5 7.5 0 1 0 15 0 a7.5 7.5 0 1 0 -15 0zM937.72 401.8 a7.5 7.5 0 1 0 15 0 a7.5 7.5 0 1 0 -15 0zM872.77 439.3 a7.5 7.5 0 1 0 15 0 a7.5 7.5 0 1 0 -15 0zM807.81 401.8 a7.5 7.5 0 1 0 15 0 a7.5 7.5 0 1 0 -15 0zM1002.68 439.3 a7.5 7.5 0 1 0 15 0 a7.5 7.5 0 1 0 -15 0zM1002.68 514.3 a7.5 7.5 0 1 0 15 0 a7.5 7.5 0 1 0 -15 0zM937.72 551.8 a7.5 7.5 0 1 0 15 0 a7.5 7.5 0 1 0 -15 0zM872.77 514.3 a7.5 7.5 0 1 0 15 0 a7.5 7.5 0 1 0 -15 0zM1067.63 551.8 a7.5 7.5 0 1 0 15 0 a7.5 7.5 0 1 0 -15 0zM1067.63 626.8 a7.5 7.5 0 1 0 15 0 a7.5 7.5 0 1 0 -15 0zM1002.68 664.3 a7.5 7.5 0 1 0 15 0 a7.5 7.5 0 1 0 -15 0zM937.72 626.8 a7.5 7.5 0 1 0 15 0 a7.5 7.5 0 1 0 -15 0zM1067.63 -48.2 a7.5 7.5 0 1 0 15 0 a7.5 7.5 0 1 0 -15 0zM1132.58 -10.7 a7.5 7.5 0 1 0 15 0 a7.5 7.5 0 1 0 -15 0zM1132.58 64.3 a7.5 7.5 0 1 0 15 0 a7.5 7.5 0 1 0 -15 0zM1067.63 101.8 a7.5 7.5 0 1 0 15 0 a7.5 7.5 0 1 0 -15 0zM1002.68 64.3 a7.5 7.5 0 1 0 15 0 a7.5 7.5 0 1 0 -15 0zM1002.68 -10.7 a7.5 7.5 0 1 0 15 0 a7.5 7.5 0 1 0 -15 0zM1197.54 101.8 a7.5 7.5 0 1 0 15 0 a7.5 7.5 0 1 0 -15 0zM1197.54 176.8 a7.5 7.5 0 1 0 15 0 a7.5 7.5 0 1 0 -15 0zM1132.58 214.3 a7.5 7.5 0 1 0 15 0 a7.5 7.5 0 1 0 -15 0zM1067.63 176.8 a7.5 7.5 0 1 0 15 0 a7.5 7.5 0 1 0 -15 0zM1067.63 401.8 a7.5 7.5 0 1 0 15 0 a7.5 7.5 0 1 0 -15 0zM1132.58 439.3 a7.5 7.5 0 1 0 15 0 a7.5 7.5 0 1 0 -15 0zM1132.58 514.3 a7.5 7.5 0 1 0 15 0 a7.5 7.5 0 1 0 -15 0zM1197.54 551.8 a7.5 7.5 0 1 0 15 0 a7.5 7.5 0 1 0 -15 0zM1197.54 626.8 a7.5 7.5 0 1 0 15 0 a7.5 7.5 0 1 0 -15 0zM1132.58 664.3 a7.5 7.5 0 1 0 15 0 a7.5 7.5 0 1 0 -15 0zM1522.31 289.3 a7.5 7.5 0 1 0 15 0 a7.5 7.5 0 1 0 -15 0zM1587.26 326.8 a7.5 7.5 0 1 0 15 0 a7.5 7.5 0 1 0 -15 0zM1587.26 401.8 a7.5 7.5 0 1 0 15 0 a7.5 7.5 0 1 0 -15 0zM1522.31 439.3 a7.5 7.5 0 1 0 15 0 a7.5 7.5 0 1 0 -15 0zM1457.35 401.8 a7.5 7.5 0 1 0 15 0 a7.5 7.5 0 1 0 -15 0zM1457.35 326.8 a7.5 7.5 0 1 0 15 0 a7.5 7.5 0 1 0 -15 0zM1522.31 514.3 a7.5 7.5 0 1 0 15 0 a7.5 7.5 0 1 0 -15 0zM1587.26 551.8 a7.5 7.5 0 1 0 15 0 a7.5 7.5 0 1 0 -15 0zM1587.26 626.8 a7.5 7.5 0 1 0 15 0 a7.5 7.5 0 1 0 -15 0zM1522.31 664.3 a7.5 7.5 0 1 0 15 0 a7.5 7.5 0 1 0 -15 0zM1457.35 626.8 a7.5 7.5 0 1 0 15 0 a7.5 7.5 0 1 0 -15 0zM1457.35 551.8 a7.5 7.5 0 1 0 15 0 a7.5 7.5 0 1 0 -15 0z" fill="#03305d"></path><path d="M2.23 -46.35L43.8 -22.35L43.8 25.65L2.23 49.65L-39.34 25.65L-39.34 -22.35zM85.37 241.65L126.94 265.65L126.94 313.65L85.37 337.65L43.8 313.65L43.8 265.65zM85.37 385.65L126.94 409.65L126.94 457.65L85.37 481.65L43.8 457.65L43.8 409.65zM210.08 25.65L251.65 49.65L251.65 97.65L210.08 121.65L168.51 97.65L168.51 49.65zM210.08 457.65L251.65 481.65L251.65 529.65L210.08 553.65L168.51 529.65L168.51 481.65zM293.22 25.65L334.79 49.65L334.79 97.65L293.22 121.65L251.65 97.65L251.65 49.65zM293.22 169.65L334.79 193.65L334.79 241.65L293.22 265.65L251.65 241.65L251.65 193.65zM251.65 385.65L293.22 409.65L293.22 457.65L251.65 481.65L210.08 457.65L210.08 409.65zM334.79 97.65L376.36 121.65L376.36 169.65L334.79 193.65L293.22 169.65L293.22 121.65zM376.36 169.65L417.93 193.65L417.93 241.65L376.36 265.65L334.79 241.65L334.79 193.65zM334.79 241.65L376.36 265.65L376.36 313.65L334.79 337.65L293.22 313.65L293.22 265.65zM459.5 25.65L501.07 49.65L501.07 97.65L459.5 121.65L417.93 97.65L417.93 49.65zM417.93 385.65L459.5 409.65L459.5 457.65L417.93 481.65L376.36 457.65L376.36 409.65zM501.07 -46.35L542.65 -22.35L542.65 25.65L501.07 49.65L459.5 25.65L459.5 -22.35zM542.65 25.65L584.22 49.65L584.22 97.65L542.65 121.65L501.07 97.65L501.07 49.65zM542.65 313.65L584.22 337.65L584.22 385.65L542.65 409.65L501.07 385.65L501.07 337.65zM625.79 313.65L667.36 337.65L667.36 385.65L625.79 409.65L584.22 385.65L584.22 337.65zM584.22 529.65L625.79 553.65L625.79 601.65L584.22 625.65L542.65 601.65L542.65 553.65zM708.93 169.65L750.5 193.65L750.5 241.65L708.93 265.65L667.36 241.65L667.36 193.65zM750.5 -46.35L792.07 -22.35L792.07 25.65L750.5 49.65L708.93 25.65L708.93 -22.35zM792.07 169.65L833.64 193.65L833.64 241.65L792.07 265.65L750.5 241.65L750.5 193.65zM750.5 529.65L792.07 553.65L792.07 601.65L750.5 625.65L708.93 601.65L708.93 553.65zM833.64 97.65L875.21 121.65L875.21 169.65L833.64 193.65L792.07 169.65L792.07 121.65zM833.64 385.65L875.21 409.65L875.21 457.65L833.64 481.65L792.07 457.65L792.07 409.65zM916.78 -46.35L958.35 -22.35L958.35 25.65L916.78 49.65L875.21 25.65L875.21 -22.35zM916.78 97.65L958.35 121.65L958.35 169.65L916.78 193.65L875.21 169.65L875.21 121.65zM958.35 169.65L999.92 193.65L999.92 241.65L958.35 265.65L916.78 241.65L916.78 193.65zM958.35 457.65L999.92 481.65L999.92 529.65L958.35 553.65L916.78 529.65L916.78 481.65zM916.78 529.65L958.35 553.65L958.35 601.65L916.78 625.65L875.21 601.65L875.21 553.65zM999.92 -46.35L1041.49 -22.35L1041.49 25.65L999.92 49.65L958.35 25.65L958.35 -22.35zM1041.49 25.65L1083.06 49.65L1083.06 97.65L1041.49 121.65L999.92 97.65L999.92 49.65zM1041.49 169.65L1083.06 193.65L1083.06 241.65L1041.49 265.65L999.92 241.65L999.92 193.65zM999.92 385.65L1041.49 409.65L1041.49 457.65L999.92 481.65L958.35 457.65L958.35 409.65zM1041.49 457.65L1083.06 481.65L1083.06 529.65L1041.49 553.65L999.92 529.65L999.92 481.65zM999.92 529.65L1041.49 553.65L1041.49 601.65L999.92 625.65L958.35 601.65L958.35 553.65zM1124.63 25.65L1166.2 49.65L1166.2 97.65L1124.63 121.65L1083.06 97.65L1083.06 49.65zM1083.06 97.65L1124.63 121.65L1124.63 169.65L1083.06 193.65L1041.49 169.65L1041.49 121.65zM1124.63 313.65L1166.2 337.65L1166.2 385.65L1124.63 409.65L1083.06 385.65L1083.06 337.65zM1083.06 385.65L1124.63 409.65L1124.63 457.65L1083.06 481.65L1041.49 457.65L1041.49 409.65zM1124.63 457.65L1166.2 481.65L1166.2 529.65L1124.63 553.65L1083.06 529.65L1083.06 481.65zM1166.2 97.65L1207.77 121.65L1207.77 169.65L1166.2 193.65L1124.63 169.65L1124.63 121.65zM1207.77 169.65L1249.34 193.65L1249.34 241.65L1207.77 265.65L1166.2 241.65L1166.2 193.65zM1207.77 313.65L1249.34 337.65L1249.34 385.65L1207.77 409.65L1166.2 385.65L1166.2 337.65zM1207.77 457.65L1249.34 481.65L1249.34 529.65L1207.77 553.65L1166.2 529.65L1166.2 481.65zM1290.91 25.65L1332.48 49.65L1332.48 97.65L1290.91 121.65L1249.34 97.65L1249.34 49.65zM1290.91 169.65L1332.48 193.65L1332.48 241.65L1290.91 265.65L1249.34 241.65L1249.34 193.65zM1249.34 529.65L1290.91 553.65L1290.91 601.65L1249.34 625.65L1207.77 601.65L1207.77 553.65zM1332.48 -46.35L1374.05 -22.35L1374.05 25.65L1332.48 49.65L1290.91 25.65L1290.91 -22.35zM1374.05 169.65L1415.62 193.65L1415.62 241.65L1374.05 265.65L1332.48 241.65L1332.48 193.65zM1415.62 97.65L1457.19 121.65L1457.19 169.65L1415.62 193.65L1374.05 169.65L1374.05 121.65zM1457.19 169.65L1498.76 193.65L1498.76 241.65L1457.19 265.65L1415.62 241.65L1415.62 193.65z" stroke="rgba(6, 80, 156, 0.93)" stroke-width="2"></path></g><defs><mask id="SvgjsMask1055"><rect width="1440" height="560" fill="#ffffff"></rect></mask></defs></svg>